<?xml version="1.0" encoding="utf-8"?>
<!-- Generator: Adobe Illustrator 15.1.0, SVG Export Plug-In . SVG Version: 6.00 Build 0)  -->
<!DOCTYPE svg PUBLIC "-//W3C//DTD SVG 1.1 Tiny//EN" "http://www.w3.org/Graphics/SVG/1.1/DTD/svg11-tiny.dtd">
<svg version="1.1" baseProfile="tiny" id="Layer_1" xmlns="http://www.w3.org/2000/svg" xmlns:xlink="http://www.w3.org/1999/xlink"
	 x="0px" y="0px" width="165px" height="64px" viewBox="0 0 165 64" xml:space="preserve">
<circle fill="#4BB6E7" cx="9.043" cy="26.836" r="8.543"/>
<path d="M40.118,12.23c0,6.328-5.126,11.455-11.453,11.455c-6.331,0-11.464-5.127-11.464-11.455c0-6.329,5.133-11.461,11.464-11.461
	C34.992,0.77,40.118,5.901,40.118,12.23z"/>
<circle fill="#C6C7C7" cx="29.767" cy="40.572" r="12.334"/>
<path d="M57.972,25.809c0,0.221-0.006,0.407-0.02,0.562c-0.014,0.153-0.033,0.284-0.061,0.395c-0.025,0.111-0.063,0.207-0.107,0.286
	c-0.043,0.081-0.113,0.17-0.21,0.271c-0.098,0.103-0.285,0.231-0.563,0.389c-0.276,0.163-0.616,0.312-1.018,0.459
	c-0.401,0.143-0.859,0.264-1.375,0.363c-0.517,0.094-1.074,0.146-1.672,0.146c-1.173,0-2.229-0.184-3.175-0.542
	c-0.942-0.363-1.744-0.901-2.406-1.621c-0.662-0.717-1.167-1.616-1.52-2.689c-0.354-1.079-0.528-2.328-0.528-3.758
	c0-1.455,0.192-2.745,0.581-3.874c0.388-1.126,0.931-2.076,1.627-2.841c0.695-0.767,1.529-1.35,2.506-1.746
	c0.972-0.398,2.046-0.598,3.219-0.598c0.476,0,0.936,0.041,1.376,0.122c0.44,0.077,0.848,0.183,1.22,0.31
	c0.378,0.127,0.713,0.277,1.013,0.442c0.301,0.168,0.511,0.312,0.63,0.432c0.119,0.118,0.196,0.216,0.243,0.297
	c0.045,0.078,0.08,0.179,0.105,0.305c0.029,0.121,0.047,0.268,0.063,0.437c0.012,0.164,0.02,0.374,0.02,0.619
	c0,0.264-0.01,0.491-0.027,0.675c-0.02,0.187-0.049,0.338-0.092,0.45c-0.045,0.114-0.098,0.197-0.159,0.249
	c-0.063,0.055-0.133,0.081-0.211,0.081c-0.135,0-0.3-0.078-0.505-0.23c-0.2-0.154-0.464-0.326-0.785-0.517
	c-0.321-0.188-0.707-0.359-1.151-0.514c-0.444-0.155-0.975-0.234-1.592-0.234c-0.679,0-1.286,0.138-1.818,0.418
	c-0.536,0.279-0.988,0.674-1.362,1.191c-0.374,0.513-0.66,1.14-0.852,1.87c-0.194,0.731-0.292,1.556-0.292,2.474
	c0,1.005,0.102,1.873,0.31,2.611c0.207,0.735,0.503,1.34,0.887,1.815c0.384,0.478,0.846,0.834,1.388,1.068
	c0.541,0.229,1.153,0.349,1.831,0.349c0.616,0,1.15-0.074,1.601-0.219s0.834-0.308,1.157-0.482c0.319-0.175,0.588-0.334,0.795-0.478
	c0.206-0.139,0.366-0.212,0.479-0.212c0.09,0,0.161,0.018,0.212,0.056c0.053,0.033,0.098,0.104,0.135,0.211
	c0.033,0.104,0.061,0.255,0.078,0.441C57.962,25.236,57.972,25.489,57.972,25.809z"/>
<path d="M75.661,19.646c0,1.419-0.176,2.687-0.528,3.81c-0.353,1.116-0.877,2.066-1.572,2.848c-0.696,0.78-1.56,1.374-2.586,1.785
	c-1.027,0.411-2.214,0.616-3.564,0.616c-1.331,0-2.494-0.176-3.483-0.525c-0.992-0.347-1.818-0.878-2.481-1.59
	c-0.658-0.716-1.153-1.624-1.486-2.723c-0.331-1.104-0.495-2.408-0.495-3.917c0-1.385,0.176-2.627,0.53-3.733
	c0.351-1.107,0.875-2.05,1.57-2.824c0.698-0.776,1.559-1.37,2.586-1.785c1.027-0.413,2.22-0.621,3.577-0.621
	c1.296,0,2.438,0.171,3.432,0.517c0.994,0.339,1.82,0.872,2.486,1.587c0.667,0.71,1.168,1.611,1.507,2.701
	S75.661,18.166,75.661,19.646z M72.013,19.831c0-0.898-0.072-1.717-0.212-2.452c-0.143-0.738-0.382-1.369-0.722-1.892
	c-0.339-0.524-0.791-0.928-1.354-1.217c-0.565-0.286-1.271-0.43-2.118-0.43c-0.854,0-1.567,0.162-2.142,0.484
	c-0.571,0.322-1.035,0.751-1.388,1.289c-0.353,0.537-0.6,1.167-0.748,1.886c-0.145,0.718-0.219,1.476-0.219,2.278
	c0,0.936,0.072,1.774,0.213,2.52c0.143,0.743,0.38,1.381,0.713,1.908c0.335,0.533,0.785,0.935,1.351,1.211
	c0.565,0.279,1.272,0.416,2.13,0.416c0.854,0,1.568-0.156,2.142-0.475c0.572-0.317,1.034-0.749,1.388-1.294
	c0.354-0.547,0.6-1.185,0.748-1.914C71.94,21.426,72.013,20.651,72.013,19.831z"/>
<path d="M87.985,26.943c0,0.266-0.01,0.489-0.029,0.67c-0.025,0.183-0.057,0.33-0.102,0.45c-0.043,0.116-0.1,0.204-0.165,0.258
	c-0.068,0.053-0.145,0.079-0.232,0.079h-7.839c-0.294,0-0.536-0.088-0.734-0.257c-0.199-0.173-0.298-0.455-0.298-0.842V11.766
	c0-0.088,0.029-0.169,0.085-0.237c0.057-0.07,0.152-0.129,0.285-0.172c0.13-0.046,0.31-0.081,0.533-0.106
	c0.227-0.025,0.507-0.041,0.842-0.041c0.344,0,0.626,0.016,0.844,0.041c0.223,0.025,0.399,0.061,0.532,0.106
	c0.131,0.043,0.227,0.102,0.284,0.172c0.057,0.068,0.084,0.149,0.084,0.237v13.764h5.382c0.088,0,0.164,0.028,0.232,0.074
	c0.065,0.048,0.122,0.128,0.165,0.237c0.045,0.111,0.076,0.259,0.102,0.438C87.976,26.457,87.985,26.682,87.985,26.943z"/>
<path d="M99.438,26.943c0,0.266-0.01,0.489-0.031,0.67c-0.023,0.183-0.055,0.33-0.1,0.45c-0.045,0.116-0.1,0.204-0.166,0.258
	c-0.068,0.053-0.144,0.079-0.231,0.079h-7.843c-0.291,0-0.534-0.088-0.731-0.257c-0.198-0.173-0.298-0.455-0.298-0.842V11.766
	c0-0.088,0.027-0.169,0.086-0.237c0.055-0.07,0.151-0.129,0.282-0.172c0.133-0.046,0.312-0.081,0.536-0.106
	c0.226-0.025,0.507-0.041,0.842-0.041c0.343,0,0.625,0.016,0.844,0.041c0.222,0.025,0.397,0.061,0.53,0.106
	c0.132,0.043,0.228,0.102,0.282,0.172c0.061,0.068,0.088,0.149,0.088,0.237v13.764h5.382c0.088,0,0.163,0.028,0.231,0.074
	c0.066,0.048,0.121,0.128,0.166,0.237c0.045,0.111,0.076,0.259,0.1,0.438C99.428,26.457,99.438,26.682,99.438,26.943z"/>
<path d="M116.403,19.646c0,1.419-0.177,2.687-0.528,3.81c-0.354,1.116-0.876,2.066-1.574,2.848c-0.697,0.78-1.559,1.374-2.586,1.785
	c-1.028,0.411-2.215,0.616-3.563,0.616c-1.331,0-2.492-0.176-3.484-0.525c-0.991-0.347-1.818-0.878-2.48-1.59
	c-0.66-0.716-1.155-1.624-1.486-2.723c-0.332-1.104-0.497-2.408-0.497-3.917c0-1.385,0.177-2.627,0.53-3.733
	c0.353-1.107,0.876-2.05,1.574-2.824c0.695-0.776,1.555-1.37,2.584-1.785c1.026-0.413,2.219-0.621,3.577-0.621
	c1.294,0,2.439,0.171,3.432,0.517c0.992,0.339,1.822,0.872,2.484,1.587c0.668,0.71,1.169,1.611,1.508,2.701
	C116.232,16.881,116.403,18.166,116.403,19.646z M112.754,19.831c0-0.898-0.072-1.717-0.215-2.452
	c-0.14-0.738-0.38-1.369-0.719-1.892c-0.339-0.524-0.789-0.928-1.354-1.217c-0.564-0.286-1.271-0.43-2.118-0.43
	c-0.854,0-1.568,0.162-2.14,0.484c-0.574,0.322-1.036,0.751-1.387,1.289c-0.353,0.537-0.603,1.167-0.75,1.886
	c-0.145,0.718-0.217,1.476-0.217,2.278c0,0.936,0.07,1.774,0.211,2.52c0.142,0.743,0.38,1.381,0.713,1.908
	c0.335,0.533,0.783,0.935,1.349,1.211c0.566,0.279,1.274,0.416,2.13,0.416s1.568-0.156,2.143-0.475
	c0.573-0.317,1.035-0.749,1.388-1.294c0.354-0.547,0.601-1.185,0.746-1.914C112.68,21.426,112.754,20.651,112.754,19.831z"/>
<path d="M131.714,23.27c0,0.606-0.084,1.158-0.252,1.653c-0.165,0.494-0.396,0.93-0.693,1.308c-0.296,0.382-0.649,0.706-1.059,0.979
	c-0.409,0.275-0.86,0.498-1.355,0.676c-0.493,0.175-1.02,0.308-1.577,0.391c-0.563,0.081-1.187,0.125-1.872,0.125h-4.55
	c-0.293,0-0.534-0.088-0.733-0.257c-0.2-0.173-0.298-0.455-0.298-0.842V12.386c0-0.386,0.098-0.667,0.298-0.841
	c0.199-0.172,0.44-0.255,0.733-0.255h4.299c1.048,0,1.937,0.089,2.665,0.263c0.725,0.177,1.339,0.443,1.836,0.8
	c0.499,0.359,0.881,0.812,1.144,1.356c0.265,0.547,0.397,1.191,0.397,1.931c0,0.415-0.053,0.804-0.16,1.171
	c-0.104,0.367-0.259,0.698-0.461,0.996c-0.203,0.3-0.452,0.563-0.749,0.796c-0.294,0.227-0.631,0.415-1.011,0.553
	c0.487,0.089,0.932,0.246,1.343,0.467c0.411,0.22,0.766,0.502,1.069,0.85c0.306,0.347,0.546,0.759,0.721,1.225
	C131.626,22.161,131.714,22.69,131.714,23.27z M127.218,16.063c0-0.345-0.052-0.653-0.157-0.925
	c-0.105-0.273-0.266-0.501-0.478-0.682c-0.211-0.179-0.479-0.319-0.799-0.416c-0.321-0.097-0.75-0.145-1.292-0.145h-1.756v4.443
	h1.942c0.503,0,0.904-0.063,1.205-0.181c0.298-0.116,0.547-0.282,0.746-0.486c0.198-0.211,0.347-0.452,0.444-0.73
	C127.17,16.663,127.218,16.37,127.218,16.063z M128.104,23.39c0-0.398-0.066-0.751-0.196-1.066
	c-0.135-0.312-0.327-0.577-0.585-0.785c-0.255-0.212-0.58-0.378-0.98-0.49c-0.394-0.114-0.909-0.174-1.543-0.174h-2.063v4.87h2.51
	c0.487,0,0.893-0.052,1.226-0.155c0.329-0.1,0.616-0.249,0.859-0.448c0.244-0.197,0.431-0.446,0.569-0.739
	C128.034,24.104,128.104,23.767,128.104,23.39z"/>
<path d="M149.896,19.646c0,1.419-0.175,2.687-0.525,3.81c-0.355,1.116-0.881,2.066-1.577,2.848c-0.695,0.78-1.557,1.374-2.584,1.785
	c-1.026,0.411-2.215,0.616-3.563,0.616c-1.331,0-2.492-0.176-3.486-0.525c-0.989-0.347-1.815-0.878-2.477-1.59
	c-0.662-0.716-1.157-1.624-1.488-2.723c-0.331-1.104-0.495-2.408-0.495-3.917c0-1.385,0.176-2.627,0.528-3.733
	c0.353-1.107,0.877-2.05,1.572-2.824c0.697-0.776,1.559-1.37,2.586-1.785c1.026-0.413,2.219-0.621,3.575-0.621
	c1.298,0,2.439,0.171,3.434,0.517c0.994,0.339,1.82,0.872,2.486,1.587c0.667,0.71,1.167,1.611,1.507,2.701
	C149.727,16.881,149.896,18.166,149.896,19.646z M146.246,19.831c0-0.898-0.068-1.717-0.21-2.452
	c-0.143-0.738-0.383-1.369-0.722-1.892c-0.339-0.524-0.789-0.928-1.354-1.217c-0.564-0.286-1.269-0.43-2.117-0.43
	c-0.854,0-1.569,0.162-2.14,0.484c-0.575,0.322-1.037,0.751-1.39,1.289c-0.353,0.537-0.603,1.167-0.748,1.886
	c-0.145,0.718-0.219,1.476-0.219,2.278c0,0.936,0.072,1.774,0.213,2.52c0.142,0.743,0.38,1.381,0.713,1.908
	c0.335,0.533,0.783,0.935,1.351,1.211c0.563,0.279,1.274,0.416,2.13,0.416c0.854,0,1.568-0.156,2.142-0.475
	c0.572-0.317,1.036-0.749,1.387-1.294c0.353-0.547,0.601-1.185,0.749-1.914C146.174,21.426,146.246,20.651,146.246,19.831z"/>
<path d="M162.961,23.27c0,0.901-0.169,1.688-0.505,2.367c-0.333,0.679-0.787,1.244-1.359,1.696c-0.573,0.455-1.243,0.8-2.012,1.026
	c-0.766,0.231-1.586,0.346-2.459,0.346c-0.59,0-1.14-0.048-1.645-0.148c-0.511-0.094-0.955-0.212-1.343-0.346
	c-0.388-0.141-0.713-0.282-0.974-0.434c-0.26-0.151-0.446-0.282-0.56-0.396c-0.115-0.114-0.196-0.278-0.245-0.494
	s-0.072-0.527-0.072-0.932c0-0.273,0.008-0.505,0.025-0.688c0.02-0.187,0.047-0.334,0.088-0.45c0.036-0.114,0.091-0.195,0.155-0.244
	c0.066-0.049,0.146-0.073,0.234-0.073c0.12,0,0.296,0.073,0.521,0.218c0.225,0.146,0.513,0.308,0.865,0.482
	c0.353,0.178,0.773,0.338,1.263,0.485c0.489,0.142,1.055,0.216,1.697,0.216c0.425,0,0.805-0.052,1.139-0.149
	c0.337-0.104,0.621-0.247,0.853-0.434c0.234-0.184,0.414-0.414,0.536-0.686c0.125-0.275,0.184-0.579,0.184-0.913
	c0-0.387-0.104-0.721-0.315-0.997c-0.211-0.278-0.487-0.527-0.826-0.741c-0.342-0.216-0.724-0.42-1.158-0.606
	c-0.433-0.191-0.877-0.393-1.337-0.604c-0.455-0.209-0.901-0.452-1.332-0.72c-0.433-0.267-0.82-0.59-1.158-0.964
	c-0.339-0.377-0.613-0.821-0.828-1.331c-0.21-0.509-0.317-1.125-0.317-1.837c0-0.82,0.154-1.541,0.458-2.161
	c0.304-0.622,0.713-1.138,1.229-1.547c0.515-0.411,1.122-0.719,1.826-0.92c0.699-0.202,1.441-0.304,2.227-0.304
	c0.405,0,0.811,0.027,1.217,0.09c0.405,0.063,0.785,0.148,1.14,0.253c0.351,0.107,0.664,0.224,0.938,0.356
	c0.272,0.132,0.454,0.241,0.541,0.329c0.088,0.089,0.148,0.166,0.18,0.227c0.029,0.063,0.055,0.145,0.076,0.244
	c0.023,0.102,0.039,0.23,0.049,0.383c0.008,0.155,0.014,0.346,0.014,0.576c0,0.258-0.008,0.474-0.02,0.648
	c-0.014,0.178-0.037,0.324-0.068,0.437c-0.031,0.115-0.074,0.199-0.131,0.249c-0.059,0.056-0.137,0.082-0.231,0.082
	c-0.096,0-0.254-0.063-0.464-0.187c-0.211-0.122-0.47-0.257-0.779-0.403c-0.309-0.145-0.667-0.275-1.072-0.397
	c-0.405-0.116-0.85-0.175-1.337-0.175c-0.378,0-0.707,0.044-0.989,0.135c-0.283,0.096-0.517,0.226-0.708,0.385
	c-0.187,0.166-0.329,0.36-0.425,0.591c-0.091,0.229-0.134,0.47-0.134,0.727c0,0.376,0.101,0.707,0.308,0.986
	c0.206,0.274,0.485,0.523,0.834,0.739c0.349,0.217,0.74,0.418,1.181,0.607c0.444,0.187,0.893,0.39,1.351,0.603
	c0.458,0.208,0.91,0.451,1.349,0.719c0.442,0.271,0.834,0.594,1.179,0.968c0.343,0.374,0.617,0.813,0.832,1.319
	C162.854,21.986,162.961,22.583,162.961,23.27z"/>
<path fill="#68A9DC" d="M92.261,42.737c0,0.535-0.102,1.007-0.305,1.414c-0.198,0.41-0.482,0.75-0.852,1.027
	c-0.366,0.274-0.799,0.479-1.299,0.62c-0.501,0.134-1.045,0.204-1.63,0.204c-0.353,0-0.689-0.025-1.011-0.077
	c-0.319-0.056-0.608-0.12-0.861-0.201s-0.468-0.164-0.635-0.249c-0.17-0.085-0.295-0.166-0.37-0.239
	c-0.078-0.071-0.139-0.19-0.18-0.349c-0.043-0.156-0.064-0.392-0.064-0.703c0-0.206,0.008-0.37,0.021-0.492
	c0.014-0.124,0.035-0.223,0.063-0.296c0.029-0.074,0.064-0.124,0.105-0.149c0.043-0.022,0.097-0.037,0.159-0.037
	c0.078,0,0.193,0.044,0.344,0.131c0.151,0.092,0.34,0.188,0.566,0.292c0.226,0.107,0.489,0.208,0.787,0.301
	c0.302,0.089,0.642,0.134,1.023,0.134c0.239,0,0.452-0.026,0.639-0.074c0.188-0.051,0.351-0.119,0.487-0.212
	c0.139-0.092,0.239-0.209,0.312-0.349c0.072-0.141,0.105-0.305,0.105-0.486c0-0.209-0.066-0.393-0.197-0.544
	c-0.128-0.152-0.302-0.284-0.518-0.398c-0.213-0.111-0.456-0.216-0.728-0.315c-0.272-0.1-0.551-0.209-0.838-0.329
	c-0.286-0.119-0.563-0.258-0.836-0.411c-0.271-0.154-0.514-0.346-0.729-0.572c-0.216-0.227-0.388-0.498-0.518-0.813
	c-0.131-0.318-0.195-0.699-0.195-1.143c0-0.451,0.086-0.866,0.263-1.244c0.178-0.376,0.429-0.7,0.764-0.969
	c0.33-0.267,0.733-0.476,1.208-0.622c0.478-0.15,1.012-0.223,1.603-0.223c0.298,0,0.586,0.021,0.865,0.062
	c0.276,0.044,0.529,0.096,0.754,0.161c0.228,0.062,0.415,0.132,0.572,0.205c0.156,0.072,0.266,0.135,0.334,0.191
	c0.065,0.05,0.11,0.106,0.142,0.157c0.029,0.056,0.049,0.117,0.063,0.19c0.016,0.073,0.027,0.165,0.039,0.274
	c0.01,0.111,0.014,0.245,0.014,0.407c0,0.19-0.004,0.349-0.014,0.465c-0.012,0.122-0.029,0.217-0.053,0.286
	c-0.025,0.072-0.059,0.118-0.102,0.144c-0.041,0.026-0.091,0.037-0.147,0.037c-0.064,0-0.162-0.037-0.297-0.108
	c-0.136-0.076-0.302-0.156-0.504-0.24c-0.199-0.085-0.431-0.166-0.698-0.238c-0.263-0.073-0.563-0.11-0.902-0.11
	c-0.239,0-0.447,0.025-0.625,0.074c-0.178,0.047-0.321,0.121-0.431,0.212c-0.115,0.093-0.201,0.199-0.257,0.322
	c-0.057,0.122-0.086,0.252-0.086,0.396c0,0.22,0.07,0.403,0.204,0.55c0.133,0.146,0.311,0.278,0.526,0.393
	c0.221,0.113,0.468,0.215,0.746,0.315c0.279,0.098,0.562,0.208,0.848,0.321c0.285,0.119,0.567,0.254,0.846,0.406
	c0.279,0.159,0.526,0.349,0.746,0.574c0.219,0.226,0.395,0.494,0.528,0.809C92.192,41.934,92.261,42.304,92.261,42.737z"/>
<path fill="#68A9DC" d="M103.798,40.59c0,0.803-0.105,1.534-0.317,2.197c-0.211,0.665-0.53,1.235-0.961,1.713
	c-0.431,0.479-0.97,0.85-1.619,1.111c-0.648,0.263-1.407,0.392-2.273,0.392c-0.84,0-1.569-0.112-2.19-0.349
	c-0.62-0.232-1.137-0.571-1.544-1.014c-0.411-0.444-0.713-0.99-0.909-1.639c-0.201-0.649-0.297-1.392-0.297-2.222
	c0-0.807,0.107-1.54,0.324-2.208c0.212-0.667,0.535-1.239,0.966-1.717c0.429-0.471,0.969-0.842,1.611-1.102
	c0.647-0.26,1.403-0.392,2.271-0.392c0.848,0,1.58,0.113,2.2,0.344c0.621,0.227,1.134,0.564,1.539,1.009
	c0.405,0.445,0.709,0.993,0.906,1.643C103.7,39.004,103.798,39.75,103.798,40.59z M101.059,40.694c0-0.466-0.037-0.895-0.111-1.287
	c-0.072-0.393-0.199-0.733-0.376-1.022c-0.174-0.284-0.409-0.513-0.701-0.674c-0.295-0.165-0.663-0.246-1.107-0.246
	c-0.396,0-0.74,0.073-1.038,0.221c-0.293,0.143-0.538,0.356-0.728,0.635c-0.192,0.278-0.335,0.611-0.431,1.003
	c-0.093,0.393-0.142,0.838-0.142,1.338c0,0.467,0.041,0.895,0.119,1.287c0.075,0.389,0.2,0.73,0.374,1.021
	c0.173,0.289,0.407,0.513,0.705,0.669c0.294,0.162,0.66,0.239,1.099,0.239c0.401,0,0.751-0.073,1.047-0.216s0.542-0.355,0.73-0.63
	c0.189-0.277,0.331-0.61,0.421-0.998C101.014,41.641,101.059,41.194,101.059,40.694z"/>
<path fill="#68A9DC" d="M109.077,37.762v7.641c0,0.07-0.02,0.131-0.063,0.183c-0.043,0.055-0.113,0.099-0.211,0.132
	c-0.099,0.037-0.237,0.063-0.413,0.082c-0.179,0.017-0.394,0.023-0.645,0.023c-0.256,0-0.466-0.007-0.642-0.023
	c-0.171-0.019-0.31-0.045-0.411-0.082c-0.103-0.033-0.173-0.077-0.212-0.132c-0.037-0.052-0.061-0.112-0.061-0.183v-7.641h-1.183
	c-0.135,0-0.234-0.08-0.302-0.249c-0.066-0.164-0.1-0.438-0.1-0.828c0-0.205,0.01-0.378,0.025-0.52
	c0.018-0.141,0.043-0.251,0.074-0.334c0.03-0.081,0.075-0.137,0.126-0.172c0.055-0.039,0.117-0.055,0.186-0.055h1.173v-0.793
	c0-0.642,0.066-1.202,0.193-1.686c0.124-0.484,0.323-0.889,0.592-1.206c0.267-0.322,0.61-0.565,1.027-0.727
	c0.415-0.161,0.905-0.241,1.479-0.241c0.276,0,0.546,0.022,0.811,0.072c0.264,0.048,0.458,0.1,0.581,0.147
	c0.123,0.052,0.21,0.099,0.257,0.142c0.051,0.048,0.092,0.114,0.119,0.203c0.027,0.087,0.049,0.2,0.059,0.337
	c0.01,0.139,0.016,0.312,0.016,0.513c0,0.204-0.008,0.37-0.021,0.494c-0.014,0.122-0.033,0.218-0.063,0.282
	c-0.029,0.07-0.063,0.114-0.098,0.141c-0.033,0.025-0.072,0.036-0.113,0.036c-0.042,0-0.095-0.011-0.155-0.036
	c-0.061-0.026-0.133-0.053-0.223-0.082c-0.087-0.025-0.19-0.055-0.308-0.075c-0.115-0.025-0.253-0.039-0.417-0.039
	c-0.188,0-0.354,0.032-0.491,0.089c-0.136,0.063-0.249,0.155-0.339,0.287c-0.088,0.131-0.154,0.301-0.198,0.51
	c-0.047,0.204-0.07,0.461-0.07,0.767v0.865h3.573v-2.104c0-0.071,0.023-0.134,0.066-0.192c0.041-0.056,0.111-0.104,0.211-0.143
	c0.099-0.036,0.233-0.065,0.405-0.084c0.173-0.019,0.388-0.026,0.643-0.026c0.259,0,0.474,0.008,0.645,0.026
	c0.168,0.019,0.305,0.048,0.405,0.084c0.104,0.039,0.176,0.087,0.219,0.143c0.043,0.059,0.063,0.121,0.063,0.192v2.104h2.052
	c0.072,0,0.135,0.016,0.185,0.055c0.053,0.035,0.098,0.091,0.135,0.172c0.035,0.083,0.061,0.193,0.078,0.334
	c0.018,0.142,0.025,0.314,0.025,0.52c0,0.39-0.033,0.664-0.104,0.828c-0.072,0.169-0.173,0.249-0.308,0.249h-2.063v4.432
	c0,0.516,0.08,0.902,0.239,1.159c0.156,0.261,0.45,0.388,0.873,0.388c0.139,0,0.268-0.015,0.38-0.037
	c0.113-0.025,0.211-0.053,0.297-0.088c0.083-0.027,0.157-0.058,0.22-0.082c0.064-0.022,0.123-0.037,0.172-0.037
	c0.043,0,0.079,0.015,0.114,0.037c0.035,0.024,0.066,0.074,0.092,0.148s0.045,0.174,0.063,0.3c0.018,0.13,0.025,0.291,0.025,0.489
	c0,0.309-0.018,0.55-0.055,0.718c-0.043,0.169-0.094,0.287-0.162,0.349c-0.065,0.066-0.159,0.121-0.28,0.177
	c-0.119,0.049-0.261,0.098-0.427,0.135c-0.167,0.042-0.343,0.069-0.536,0.092c-0.188,0.022-0.386,0.033-0.582,0.033
	c-0.534,0-0.998-0.07-1.384-0.203c-0.388-0.135-0.707-0.341-0.963-0.617c-0.253-0.279-0.442-0.631-0.561-1.053
	c-0.119-0.427-0.182-0.925-0.182-1.502v-4.837H109.077z"/>
<path fill="#68A9DC" d="M134.118,35.944c0,0.076-0.01,0.173-0.033,0.287c-0.021,0.112-0.059,0.273-0.115,0.483l-2.52,8.535
	c-0.035,0.123-0.078,0.223-0.138,0.296c-0.055,0.072-0.141,0.131-0.258,0.171c-0.116,0.044-0.282,0.074-0.499,0.085
	c-0.212,0.014-0.492,0.021-0.838,0.021c-0.347,0-0.629-0.007-0.848-0.023c-0.218-0.019-0.39-0.049-0.512-0.093
	c-0.123-0.041-0.213-0.099-0.271-0.173c-0.057-0.072-0.099-0.17-0.126-0.283l-1.585-5.731l-0.023-0.097l-0.019,0.097l-1.464,5.731
	c-0.025,0.123-0.068,0.223-0.119,0.296c-0.055,0.072-0.144,0.131-0.271,0.171c-0.129,0.044-0.302,0.074-0.519,0.085
	c-0.22,0.014-0.499,0.021-0.848,0.021c-0.351,0-0.635-0.007-0.852-0.023c-0.212-0.019-0.382-0.049-0.509-0.093
	c-0.12-0.041-0.212-0.099-0.267-0.173c-0.059-0.072-0.1-0.17-0.127-0.283l-2.496-8.535c-0.064-0.202-0.104-0.363-0.124-0.482
	c-0.016-0.115-0.023-0.212-0.023-0.288c0-0.068,0.018-0.131,0.057-0.188c0.038-0.051,0.108-0.096,0.212-0.123
	c0.102-0.033,0.239-0.056,0.411-0.071c0.176-0.013,0.392-0.021,0.65-0.021c0.283,0,0.513,0.008,0.688,0.021
	c0.177,0.016,0.315,0.038,0.413,0.073c0.098,0.037,0.167,0.085,0.206,0.144c0.039,0.06,0.07,0.133,0.088,0.217l1.877,6.928
	l0.02,0.127l0.02-0.127l1.757-6.928c0.02-0.084,0.057-0.157,0.1-0.217c0.047-0.059,0.115-0.106,0.205-0.144
	c0.093-0.035,0.224-0.058,0.388-0.073c0.165-0.013,0.38-0.021,0.639-0.021c0.264,0,0.474,0.011,0.636,0.025
	c0.163,0.018,0.292,0.042,0.388,0.075c0.096,0.03,0.163,0.074,0.2,0.126c0.039,0.056,0.068,0.114,0.09,0.187l1.883,6.98l0.033,0.115
	l0.021-0.127l1.797-6.928c0.016-0.084,0.043-0.157,0.084-0.217c0.045-0.059,0.115-0.106,0.212-0.144
	c0.1-0.035,0.234-0.058,0.404-0.073c0.169-0.013,0.382-0.021,0.645-0.021c0.261,0,0.474,0.008,0.639,0.021
	c0.166,0.016,0.299,0.038,0.393,0.071c0.095,0.027,0.159,0.072,0.194,0.123C134.101,35.813,134.118,35.876,134.118,35.944z"/>
<path fill="#68A9DC" d="M143.629,45.43c0,0.1-0.037,0.182-0.106,0.235c-0.07,0.056-0.182,0.096-0.334,0.123
	c-0.151,0.023-0.376,0.034-0.672,0.034c-0.315,0-0.55-0.011-0.693-0.034c-0.143-0.027-0.246-0.067-0.307-0.123
	c-0.061-0.054-0.089-0.136-0.089-0.235v-0.746c-0.389,0.415-0.833,0.738-1.327,0.971c-0.497,0.236-1.053,0.349-1.654,0.349
	c-0.503,0-0.963-0.066-1.382-0.195c-0.421-0.131-0.783-0.326-1.089-0.583c-0.307-0.256-0.546-0.574-0.716-0.956
	c-0.169-0.38-0.253-0.824-0.253-1.333c0-0.552,0.105-1.027,0.323-1.436c0.215-0.401,0.536-0.739,0.963-1.002
	c0.427-0.266,0.954-0.459,1.592-0.587c0.633-0.129,1.372-0.19,2.21-0.19h0.919v-0.572c0-0.297-0.028-0.554-0.089-0.776
	c-0.059-0.226-0.158-0.407-0.297-0.556c-0.138-0.149-0.321-0.259-0.549-0.329c-0.23-0.068-0.515-0.105-0.85-0.105
	c-0.448,0-0.844,0.052-1.192,0.149c-0.35,0.1-0.657,0.206-0.926,0.326c-0.268,0.122-0.491,0.229-0.671,0.329
	c-0.179,0.1-0.327,0.148-0.44,0.148c-0.075,0-0.146-0.025-0.204-0.074c-0.063-0.052-0.109-0.121-0.148-0.213
	c-0.041-0.091-0.07-0.206-0.091-0.337c-0.021-0.136-0.029-0.283-0.029-0.444c0-0.219,0.016-0.392,0.05-0.519
	c0.037-0.128,0.102-0.243,0.201-0.346s0.271-0.212,0.519-0.338c0.247-0.124,0.535-0.237,0.867-0.344
	c0.333-0.107,0.691-0.189,1.085-0.26c0.392-0.066,0.797-0.099,1.212-0.099c0.74,0,1.372,0.072,1.898,0.216
	c0.523,0.146,0.956,0.366,1.296,0.666c0.337,0.3,0.584,0.686,0.74,1.159c0.153,0.473,0.233,1.033,0.233,1.682V45.43z
	 M141.014,41.393h-1.015c-0.431,0-0.797,0.033-1.099,0.095c-0.305,0.061-0.55,0.157-0.741,0.287
	c-0.19,0.126-0.331,0.277-0.417,0.457c-0.089,0.18-0.132,0.389-0.132,0.618c0,0.397,0.124,0.708,0.376,0.932
	c0.249,0.227,0.596,0.341,1.04,0.341c0.372,0,0.718-0.096,1.031-0.285c0.313-0.192,0.633-0.469,0.956-0.835V41.393z"/>
<path fill="#68A9DC" d="M152.343,36.842c0,0.254-0.005,0.462-0.021,0.623c-0.014,0.166-0.035,0.289-0.063,0.382
	c-0.027,0.092-0.064,0.159-0.111,0.192c-0.045,0.036-0.105,0.054-0.176,0.054c-0.055,0-0.118-0.016-0.188-0.038
	c-0.072-0.023-0.152-0.049-0.238-0.079c-0.089-0.029-0.187-0.056-0.29-0.081c-0.107-0.022-0.224-0.037-0.351-0.037
	c-0.146,0-0.296,0.029-0.444,0.092c-0.148,0.06-0.3,0.153-0.46,0.278c-0.16,0.13-0.325,0.297-0.499,0.509
	c-0.171,0.21-0.356,0.475-0.553,0.782v5.884c0,0.07-0.02,0.131-0.063,0.183c-0.043,0.055-0.117,0.099-0.219,0.132
	c-0.104,0.037-0.237,0.063-0.405,0.082c-0.171,0.017-0.386,0.023-0.646,0.023c-0.262,0-0.478-0.007-0.646-0.023
	c-0.171-0.019-0.306-0.045-0.409-0.082c-0.101-0.033-0.173-0.077-0.214-0.132c-0.043-0.052-0.064-0.112-0.064-0.183v-9.435
	c0-0.074,0.018-0.137,0.053-0.188s0.1-0.096,0.19-0.133c0.092-0.037,0.207-0.062,0.354-0.079c0.146-0.015,0.327-0.025,0.545-0.025
	c0.229,0,0.413,0.011,0.56,0.025c0.148,0.018,0.265,0.042,0.347,0.079c0.078,0.037,0.139,0.081,0.174,0.133
	c0.037,0.052,0.053,0.114,0.053,0.188v1.171c0.245-0.351,0.479-0.645,0.697-0.872c0.218-0.231,0.427-0.411,0.625-0.546
	c0.197-0.132,0.394-0.227,0.591-0.278c0.2-0.056,0.396-0.08,0.595-0.08c0.089,0,0.19,0.008,0.294,0.013
	c0.105,0.012,0.214,0.03,0.329,0.057c0.111,0.025,0.213,0.051,0.296,0.084c0.084,0.034,0.146,0.064,0.186,0.098
	c0.037,0.038,0.066,0.077,0.082,0.118c0.021,0.044,0.035,0.1,0.051,0.178c0.014,0.072,0.025,0.182,0.031,0.331
	C152.339,36.389,152.343,36.591,152.343,36.842z"/>
<path fill="#68A9DC" d="M162.456,40.409c0,0.322-0.071,0.564-0.216,0.719c-0.146,0.153-0.345,0.231-0.597,0.231h-5.744
	c0,0.403,0.047,0.768,0.143,1.095c0.095,0.329,0.247,0.608,0.454,0.835c0.206,0.233,0.477,0.403,0.803,0.525
	c0.329,0.122,0.723,0.179,1.179,0.179c0.468,0,0.875-0.031,1.228-0.097c0.353-0.072,0.658-0.145,0.916-0.227
	c0.259-0.081,0.474-0.151,0.641-0.222c0.168-0.066,0.306-0.1,0.411-0.1c0.066,0,0.119,0.013,0.16,0.037
	c0.041,0.025,0.078,0.069,0.105,0.133c0.029,0.06,0.046,0.151,0.058,0.271c0.012,0.114,0.016,0.259,0.016,0.435
	c0,0.158-0.002,0.29-0.01,0.4c-0.008,0.107-0.02,0.2-0.03,0.277c-0.016,0.078-0.037,0.145-0.064,0.2
	c-0.029,0.052-0.066,0.103-0.111,0.148c-0.047,0.053-0.172,0.119-0.374,0.203c-0.205,0.084-0.466,0.169-0.785,0.249
	c-0.318,0.08-0.679,0.151-1.09,0.213c-0.409,0.059-0.848,0.088-1.312,0.088c-0.842,0-1.574-0.107-2.205-0.315
	c-0.634-0.212-1.158-0.534-1.583-0.964c-0.421-0.43-0.736-0.972-0.946-1.628c-0.207-0.657-0.313-1.425-0.313-2.305
	c0-0.841,0.111-1.599,0.33-2.273c0.218-0.671,0.535-1.243,0.95-1.711c0.417-0.471,0.924-0.829,1.521-1.075
	c0.596-0.245,1.265-0.369,2.015-0.369c0.789,0,1.465,0.116,2.024,0.348c0.562,0.234,1.023,0.557,1.382,0.967
	c0.358,0.415,0.623,0.902,0.793,1.466c0.168,0.564,0.253,1.179,0.253,1.841V40.409z M159.877,39.648
	c0.019-0.749-0.129-1.335-0.45-1.766c-0.324-0.426-0.816-0.638-1.485-0.638c-0.341,0-0.635,0.063-0.885,0.191
	c-0.251,0.124-0.456,0.297-0.623,0.513c-0.168,0.212-0.295,0.471-0.382,0.758c-0.088,0.295-0.139,0.605-0.152,0.941H159.877z"/>
<path fill="#20201F" d="M68.311,62.665c0.038,0.112,0.062,0.2,0.07,0.266c0.01,0.065-0.003,0.115-0.037,0.147
	c-0.034,0.033-0.096,0.054-0.183,0.062c-0.087,0.007-0.207,0.012-0.359,0.012c-0.158,0-0.282-0.003-0.372-0.008
	c-0.089-0.004-0.155-0.014-0.202-0.027c-0.047-0.015-0.08-0.034-0.099-0.059c-0.019-0.025-0.034-0.059-0.047-0.099l-0.406-1.215
	h-2.271l-0.383,1.182c-0.013,0.044-0.028,0.081-0.049,0.11s-0.053,0.053-0.098,0.07c-0.045,0.017-0.109,0.028-0.192,0.035
	c-0.082,0.006-0.189,0.01-0.324,0.01c-0.144,0-0.256-0.005-0.336-0.015c-0.081-0.009-0.138-0.032-0.169-0.067
	c-0.031-0.036-0.042-0.087-0.032-0.152c0.009-0.065,0.032-0.152,0.07-0.262l1.864-5.363c0.019-0.053,0.04-0.096,0.064-0.129
	c0.025-0.033,0.064-0.058,0.119-0.075c0.055-0.017,0.131-0.027,0.228-0.032c0.096-0.005,0.224-0.007,0.383-0.007
	c0.184,0,0.33,0.002,0.439,0.007c0.108,0.005,0.193,0.016,0.254,0.032c0.062,0.018,0.104,0.043,0.132,0.077
	c0.026,0.035,0.049,0.082,0.067,0.141L68.311,62.665z M65.536,58.23h-0.005L64.677,60.8h1.714L65.536,58.23z"/>
<path fill="#20201F" d="M74.541,60.87c0,0.371-0.055,0.702-0.163,0.996c-0.109,0.292-0.27,0.54-0.481,0.742
	c-0.212,0.203-0.474,0.356-0.784,0.463c-0.313,0.106-0.671,0.159-1.075,0.159c-0.38,0-0.721-0.048-1.022-0.143
	c-0.304-0.096-0.559-0.24-0.768-0.433c-0.208-0.193-0.368-0.434-0.478-0.722c-0.111-0.288-0.167-0.625-0.167-1.012v-3.677
	c0-0.031,0.01-0.06,0.028-0.084c0.019-0.025,0.053-0.046,0.101-0.062c0.049-0.016,0.111-0.027,0.188-0.037
	c0.078-0.01,0.179-0.014,0.3-0.014c0.118,0,0.217,0.004,0.294,0.014c0.078,0.01,0.14,0.021,0.187,0.037s0.081,0.036,0.101,0.062
	c0.021,0.024,0.031,0.053,0.031,0.084v3.569c0,0.24,0.029,0.447,0.089,0.624c0.059,0.176,0.145,0.321,0.254,0.437
	c0.111,0.115,0.243,0.201,0.397,0.259c0.154,0.059,0.327,0.087,0.517,0.087c0.193,0,0.365-0.029,0.519-0.089
	c0.151-0.06,0.281-0.145,0.388-0.259s0.187-0.255,0.245-0.421c0.058-0.167,0.086-0.355,0.086-0.567v-3.64
	c0-0.031,0.01-0.06,0.028-0.084c0.019-0.025,0.052-0.046,0.099-0.062s0.11-0.027,0.188-0.037c0.08-0.01,0.179-0.014,0.298-0.014
	c0.117,0,0.215,0.004,0.291,0.014c0.077,0.01,0.139,0.021,0.186,0.037c0.046,0.016,0.078,0.036,0.097,0.062
	c0.02,0.024,0.028,0.053,0.028,0.084V60.87z"/>
<path fill="#20201F" d="M80.562,57.581c0,0.091-0.004,0.168-0.012,0.231s-0.02,0.115-0.035,0.154s-0.035,0.067-0.059,0.087
	c-0.023,0.019-0.049,0.027-0.077,0.027h-1.514v4.873c0,0.031-0.01,0.06-0.03,0.084c-0.021,0.025-0.054,0.046-0.101,0.062
	s-0.11,0.028-0.188,0.037c-0.08,0.01-0.179,0.015-0.298,0.015c-0.117,0-0.217-0.005-0.296-0.015
	c-0.08-0.009-0.143-0.021-0.188-0.037c-0.047-0.016-0.081-0.036-0.102-0.062c-0.02-0.024-0.03-0.053-0.03-0.084v-4.873h-1.514
	c-0.03,0-0.058-0.009-0.079-0.027c-0.021-0.02-0.041-0.048-0.056-0.087c-0.017-0.039-0.028-0.091-0.035-0.154
	c-0.008-0.063-0.012-0.141-0.012-0.231c0-0.094,0.004-0.173,0.012-0.237c0.007-0.065,0.019-0.118,0.035-0.157
	c0.015-0.039,0.034-0.067,0.056-0.084c0.021-0.018,0.049-0.026,0.079-0.026h4.261c0.028,0,0.054,0.009,0.077,0.026
	c0.023,0.017,0.043,0.045,0.059,0.084s0.027,0.092,0.035,0.157C80.558,57.408,80.562,57.487,80.562,57.581z"/>
<path fill="#20201F" d="M86.68,62.954c0,0.031-0.011,0.06-0.031,0.084c-0.02,0.025-0.054,0.046-0.101,0.062
	s-0.108,0.028-0.186,0.037c-0.078,0.01-0.177,0.015-0.296,0.015c-0.12,0-0.221-0.005-0.301-0.015
	c-0.078-0.009-0.141-0.021-0.187-0.037c-0.045-0.016-0.078-0.036-0.098-0.062c-0.021-0.024-0.031-0.053-0.031-0.084v-2.443h-2.261
	v2.443c0,0.031-0.009,0.06-0.027,0.084c-0.02,0.025-0.052,0.046-0.099,0.062s-0.109,0.028-0.188,0.037
	c-0.077,0.01-0.177,0.015-0.299,0.015c-0.118,0-0.217-0.005-0.296-0.015c-0.08-0.009-0.144-0.021-0.19-0.037
	s-0.08-0.036-0.101-0.062c-0.019-0.024-0.029-0.053-0.029-0.084v-5.709c0-0.031,0.011-0.06,0.029-0.084
	c0.021-0.025,0.054-0.046,0.101-0.062s0.11-0.027,0.19-0.037c0.079-0.01,0.178-0.014,0.296-0.014c0.122,0,0.222,0.004,0.299,0.014
	c0.078,0.01,0.141,0.021,0.188,0.037s0.079,0.036,0.099,0.062c0.019,0.024,0.027,0.053,0.027,0.084v2.22h2.261v-2.22
	c0-0.031,0.011-0.06,0.031-0.084c0.02-0.025,0.053-0.046,0.098-0.062c0.046-0.016,0.108-0.027,0.187-0.037
	c0.08-0.01,0.181-0.014,0.301-0.014c0.119,0,0.218,0.004,0.296,0.014c0.077,0.01,0.139,0.021,0.186,0.037s0.081,0.036,0.101,0.062
	c0.021,0.024,0.031,0.053,0.031,0.084V62.954z"/>
<path fill="#20201F" d="M94.11,60.029c0,0.502-0.063,0.95-0.187,1.346c-0.125,0.396-0.31,0.731-0.556,1.008
	c-0.246,0.275-0.551,0.484-0.914,0.63c-0.362,0.146-0.782,0.218-1.259,0.218c-0.471,0-0.881-0.062-1.231-0.185
	c-0.351-0.124-0.642-0.311-0.876-0.563c-0.233-0.252-0.409-0.572-0.525-0.962s-0.175-0.851-0.175-1.384
	c0-0.488,0.063-0.929,0.187-1.319s0.311-0.724,0.556-0.998c0.247-0.273,0.551-0.483,0.914-0.631c0.362-0.146,0.783-0.22,1.264-0.22
	c0.458,0,0.862,0.061,1.212,0.183c0.351,0.122,0.644,0.309,0.879,0.562c0.234,0.251,0.412,0.569,0.533,0.954
	C94.051,59.053,94.11,59.506,94.11,60.029z M92.821,60.095c0-0.317-0.025-0.606-0.074-0.866c-0.05-0.26-0.135-0.483-0.255-0.668
	c-0.121-0.186-0.279-0.329-0.479-0.43c-0.199-0.102-0.448-0.152-0.747-0.152c-0.302,0-0.555,0.057-0.757,0.171
	c-0.203,0.113-0.366,0.266-0.491,0.455c-0.125,0.19-0.212,0.412-0.264,0.666c-0.051,0.253-0.077,0.522-0.077,0.806
	c0,0.33,0.025,0.627,0.075,0.891c0.05,0.263,0.133,0.488,0.252,0.675c0.118,0.187,0.276,0.33,0.477,0.427
	c0.199,0.099,0.45,0.147,0.752,0.147s0.555-0.056,0.757-0.168c0.203-0.111,0.367-0.265,0.491-0.458
	c0.124-0.192,0.213-0.418,0.264-0.675S92.821,60.385,92.821,60.095z"/>
<path fill="#20201F" d="M100.292,62.964c0,0.034-0.007,0.063-0.019,0.086c-0.013,0.023-0.042,0.043-0.089,0.059
	s-0.116,0.026-0.206,0.033c-0.09,0.006-0.213,0.01-0.369,0.01c-0.131,0-0.235-0.004-0.313-0.01c-0.078-0.007-0.14-0.019-0.185-0.035
	c-0.045-0.018-0.076-0.039-0.095-0.065s-0.035-0.059-0.047-0.096l-0.543-1.351c-0.065-0.152-0.129-0.288-0.191-0.407
	c-0.062-0.117-0.131-0.217-0.208-0.296c-0.076-0.08-0.164-0.14-0.264-0.18s-0.215-0.061-0.346-0.061h-0.384v2.303
	c0,0.031-0.01,0.06-0.03,0.084c-0.021,0.025-0.053,0.046-0.1,0.062s-0.109,0.028-0.188,0.037c-0.078,0.01-0.177,0.015-0.299,0.015
	c-0.118,0-0.218-0.005-0.296-0.015c-0.08-0.009-0.143-0.021-0.189-0.037s-0.08-0.036-0.099-0.062
	c-0.019-0.024-0.028-0.053-0.028-0.084v-5.49c0-0.136,0.035-0.235,0.105-0.296s0.157-0.092,0.259-0.092h1.566
	c0.158,0,0.289,0.004,0.393,0.01c0.102,0.006,0.195,0.014,0.279,0.023c0.243,0.034,0.462,0.094,0.657,0.178
	c0.194,0.084,0.359,0.193,0.494,0.329c0.136,0.136,0.24,0.296,0.312,0.481c0.071,0.185,0.107,0.398,0.107,0.638
	c0,0.203-0.026,0.387-0.077,0.554s-0.127,0.315-0.227,0.446s-0.223,0.244-0.369,0.341s-0.313,0.175-0.5,0.234
	c0.091,0.043,0.176,0.096,0.255,0.158s0.154,0.138,0.224,0.227c0.07,0.089,0.137,0.19,0.199,0.304
	c0.062,0.114,0.123,0.242,0.182,0.386l0.51,1.191c0.047,0.118,0.078,0.205,0.094,0.259C100.284,62.89,100.292,62.933,100.292,62.964
	z M98.707,58.861c0-0.199-0.045-0.367-0.135-0.505c-0.091-0.137-0.238-0.232-0.443-0.289c-0.063-0.016-0.134-0.028-0.214-0.037
	c-0.079-0.01-0.188-0.015-0.329-0.015h-0.552v1.715h0.627c0.174,0,0.327-0.021,0.458-0.063c0.13-0.042,0.239-0.101,0.327-0.178
	c0.087-0.075,0.152-0.167,0.196-0.272C98.686,59.11,98.707,58.993,98.707,58.861z"/>
<path fill="#20201F" d="M103.061,62.954c0,0.031-0.01,0.06-0.03,0.084c-0.021,0.025-0.054,0.046-0.101,0.062
	s-0.108,0.028-0.187,0.037c-0.078,0.01-0.178,0.015-0.3,0.015c-0.117,0-0.217-0.005-0.296-0.015
	c-0.08-0.009-0.144-0.021-0.189-0.037c-0.047-0.016-0.08-0.036-0.101-0.062c-0.02-0.024-0.03-0.053-0.03-0.084v-5.709
	c0-0.031,0.011-0.06,0.03-0.084c0.021-0.025,0.055-0.046,0.104-0.062c0.047-0.016,0.11-0.027,0.188-0.037s0.177-0.014,0.294-0.014
	c0.122,0,0.222,0.004,0.3,0.014s0.14,0.021,0.187,0.037s0.08,0.036,0.101,0.062c0.021,0.024,0.03,0.053,0.03,0.084V62.954z"/>
<path fill="#20201F" d="M108.748,62.637c0,0.091-0.004,0.167-0.012,0.229c-0.008,0.063-0.02,0.113-0.034,0.152
	c-0.016,0.039-0.035,0.066-0.059,0.082s-0.05,0.023-0.077,0.023h-3.565c-0.124,0-0.221-0.036-0.287-0.108
	c-0.067-0.071-0.101-0.176-0.101-0.313v-0.206c0-0.063,0.004-0.118,0.012-0.17s0.021-0.104,0.039-0.157
	c0.02-0.053,0.046-0.11,0.082-0.173c0.036-0.062,0.081-0.137,0.134-0.224l2.345-3.719h-2.326c-0.037,0-0.069-0.009-0.096-0.026
	c-0.026-0.017-0.049-0.044-0.065-0.082c-0.018-0.037-0.03-0.087-0.038-0.148c-0.008-0.063-0.012-0.138-0.012-0.225
	c0-0.094,0.004-0.173,0.012-0.236s0.021-0.115,0.038-0.154c0.017-0.039,0.039-0.066,0.065-0.082s0.059-0.023,0.096-0.023h3.341
	c0.127,0,0.222,0.033,0.282,0.099s0.092,0.158,0.092,0.275v0.229c0,0.084-0.005,0.156-0.012,0.217
	c-0.008,0.061-0.022,0.12-0.043,0.178c-0.02,0.058-0.047,0.117-0.082,0.177c-0.034,0.062-0.077,0.134-0.131,0.218l-2.308,3.668
	h2.528c0.059,0,0.104,0.037,0.136,0.112C108.732,62.324,108.748,62.452,108.748,62.637z"/>
<path fill="#20201F" d="M113.846,62.642c0,0.091-0.004,0.166-0.012,0.226c-0.008,0.062-0.02,0.11-0.035,0.147
	c-0.016,0.038-0.035,0.065-0.058,0.082c-0.023,0.018-0.049,0.026-0.077,0.026h-3.037c-0.103,0-0.189-0.03-0.259-0.092
	c-0.07-0.061-0.105-0.16-0.105-0.296v-5.271c0-0.136,0.035-0.235,0.105-0.296c0.069-0.061,0.156-0.092,0.259-0.092h3.019
	c0.028,0,0.053,0.008,0.075,0.023c0.021,0.016,0.039,0.043,0.055,0.082s0.027,0.089,0.035,0.15c0.008,0.06,0.012,0.137,0.012,0.23
	c0,0.088-0.004,0.162-0.012,0.223c-0.008,0.06-0.02,0.109-0.035,0.146s-0.033,0.064-0.055,0.082
	c-0.022,0.017-0.047,0.025-0.075,0.025h-2.158v1.477h1.827c0.026,0,0.053,0.008,0.076,0.025s0.043,0.044,0.059,0.08
	c0.016,0.035,0.027,0.084,0.035,0.145c0.008,0.062,0.012,0.134,0.012,0.222c0,0.091-0.004,0.165-0.012,0.225
	s-0.02,0.106-0.035,0.142c-0.016,0.036-0.035,0.063-0.059,0.078s-0.05,0.023-0.076,0.023h-1.827v1.705h2.177
	c0.028,0,0.054,0.009,0.077,0.025c0.022,0.018,0.042,0.045,0.058,0.082c0.016,0.038,0.027,0.087,0.035,0.146
	C113.842,62.476,113.846,62.551,113.846,62.642z"/>
<path fill="#20201F" d="M120.573,60.011c0,0.555-0.072,1.029-0.217,1.423c-0.145,0.395-0.353,0.716-0.624,0.965
	c-0.271,0.249-0.6,0.432-0.987,0.549s-0.85,0.176-1.386,0.176h-1.444c-0.102,0-0.188-0.03-0.259-0.092
	c-0.07-0.061-0.105-0.16-0.105-0.296v-5.271c0-0.136,0.035-0.235,0.105-0.296s0.157-0.092,0.259-0.092h1.552
	c0.538,0,0.996,0.063,1.371,0.19c0.375,0.125,0.692,0.313,0.948,0.56c0.257,0.248,0.453,0.554,0.587,0.918
	S120.573,59.531,120.573,60.011z M119.303,60.053c0-0.286-0.033-0.553-0.1-0.799c-0.067-0.245-0.175-0.459-0.323-0.64
	c-0.147-0.181-0.338-0.322-0.569-0.423c-0.232-0.102-0.537-0.152-0.914-0.152h-0.621v4.111h0.641c0.336,0,0.619-0.043,0.85-0.131
	c0.23-0.086,0.423-0.219,0.577-0.395s0.27-0.395,0.346-0.656S119.303,60.401,119.303,60.053z"/>
<path fill="#20201F" d="M129.71,58.848c0,0.302-0.049,0.575-0.148,0.817c-0.101,0.242-0.243,0.45-0.428,0.622
	c-0.186,0.171-0.413,0.304-0.683,0.396s-0.591,0.14-0.964,0.14H126.8v2.178c0,0.025-0.008,0.047-0.021,0.065
	s-0.035,0.034-0.064,0.045s-0.07,0.021-0.122,0.028c-0.051,0.007-0.116,0.012-0.194,0.012c-0.077,0-0.142-0.005-0.193-0.012
	c-0.052-0.008-0.093-0.018-0.124-0.028s-0.053-0.026-0.065-0.045s-0.019-0.04-0.019-0.065v-5.579c0-0.124,0.032-0.213,0.099-0.266
	c0.065-0.053,0.139-0.08,0.22-0.08h1.293c0.132,0,0.257,0.006,0.377,0.017c0.119,0.011,0.262,0.034,0.426,0.07
	c0.163,0.036,0.33,0.104,0.499,0.201c0.17,0.098,0.314,0.219,0.432,0.362c0.119,0.143,0.21,0.309,0.274,0.497
	C129.679,58.412,129.71,58.621,129.71,58.848z M128.864,58.913c0-0.247-0.045-0.452-0.137-0.617
	c-0.093-0.164-0.206-0.288-0.341-0.369c-0.136-0.081-0.276-0.132-0.421-0.153c-0.146-0.021-0.286-0.033-0.423-0.033H126.8v2.425
	h0.725c0.242,0,0.444-0.031,0.604-0.094c0.161-0.063,0.296-0.148,0.404-0.259c0.109-0.11,0.191-0.243,0.248-0.396
	C128.838,59.261,128.864,59.093,128.864,58.913z"/>
<path fill="#20201F" d="M135.696,62.837c0.024,0.069,0.038,0.124,0.039,0.166c0.002,0.043-0.01,0.074-0.035,0.097
	c-0.024,0.021-0.065,0.035-0.124,0.042c-0.057,0.006-0.134,0.01-0.23,0.01s-0.174-0.003-0.23-0.008
	c-0.059-0.004-0.102-0.012-0.132-0.023c-0.029-0.011-0.051-0.025-0.065-0.044c-0.014-0.019-0.027-0.042-0.04-0.07l-0.519-1.472
	h-2.514l-0.494,1.453c-0.01,0.027-0.022,0.052-0.038,0.072s-0.038,0.037-0.067,0.052c-0.029,0.014-0.072,0.023-0.127,0.03
	c-0.054,0.006-0.125,0.01-0.212,0.01c-0.09,0-0.164-0.005-0.223-0.012c-0.058-0.008-0.098-0.023-0.121-0.045
	s-0.034-0.054-0.033-0.096c0.002-0.042,0.015-0.098,0.04-0.167l2.028-5.615c0.013-0.034,0.028-0.063,0.049-0.084
	c0.02-0.021,0.05-0.039,0.089-0.052s0.089-0.021,0.149-0.025c0.062-0.005,0.139-0.007,0.231-0.007c0.1,0,0.183,0.002,0.248,0.007
	s0.117,0.013,0.158,0.025c0.04,0.013,0.071,0.03,0.094,0.054c0.021,0.023,0.039,0.053,0.051,0.087L135.696,62.837z M133.094,57.88
	h-0.005l-1.042,3.014h2.103L133.094,57.88z"/>
<path fill="#20201F" d="M141.393,63.001c0,0.025-0.004,0.047-0.014,0.065s-0.029,0.034-0.061,0.047s-0.075,0.021-0.132,0.028
	c-0.056,0.006-0.131,0.01-0.224,0.01c-0.081,0-0.147-0.004-0.199-0.01c-0.051-0.007-0.093-0.017-0.124-0.03
	c-0.031-0.015-0.055-0.034-0.071-0.059c-0.018-0.025-0.032-0.057-0.045-0.094l-0.556-1.425c-0.065-0.162-0.134-0.312-0.204-0.446
	c-0.069-0.136-0.152-0.253-0.249-0.351c-0.098-0.098-0.21-0.174-0.342-0.229c-0.131-0.055-0.287-0.082-0.472-0.082h-0.537v2.574
	c0,0.025-0.008,0.047-0.021,0.065s-0.036,0.034-0.064,0.045c-0.029,0.011-0.07,0.021-0.122,0.028
	c-0.051,0.007-0.116,0.012-0.194,0.012s-0.142-0.005-0.193-0.012c-0.052-0.008-0.093-0.018-0.124-0.028s-0.053-0.026-0.065-0.045
	s-0.019-0.04-0.019-0.065v-5.598c0-0.121,0.032-0.206,0.096-0.254c0.064-0.049,0.132-0.073,0.203-0.073h1.285
	c0.152,0,0.279,0.004,0.381,0.012c0.101,0.008,0.192,0.017,0.273,0.026c0.233,0.04,0.439,0.104,0.618,0.191
	c0.18,0.087,0.33,0.197,0.451,0.332c0.122,0.134,0.213,0.287,0.274,0.46c0.061,0.173,0.09,0.363,0.09,0.572
	c0,0.202-0.026,0.385-0.081,0.544c-0.055,0.161-0.133,0.302-0.236,0.426c-0.103,0.123-0.226,0.229-0.369,0.319
	c-0.144,0.091-0.304,0.167-0.481,0.229c0.101,0.044,0.19,0.1,0.271,0.165c0.08,0.067,0.156,0.147,0.227,0.241
	s0.137,0.201,0.199,0.322c0.062,0.122,0.124,0.259,0.187,0.411l0.542,1.332c0.044,0.112,0.071,0.19,0.084,0.235
	C141.387,62.941,141.393,62.977,141.393,63.001z M140.182,58.754c0-0.236-0.052-0.437-0.158-0.6
	c-0.105-0.164-0.283-0.282-0.532-0.354c-0.078-0.021-0.166-0.037-0.264-0.046c-0.099-0.01-0.228-0.015-0.386-0.015h-0.678v2.037
	h0.784c0.213,0,0.396-0.025,0.55-0.077s0.282-0.123,0.385-0.216c0.104-0.091,0.179-0.199,0.228-0.324
	C140.159,59.036,140.182,58.9,140.182,58.754z"/>
<path fill="#20201F" d="M146.967,57.422c0,0.06-0.003,0.111-0.01,0.154c-0.006,0.044-0.016,0.079-0.03,0.105
	c-0.014,0.027-0.031,0.047-0.051,0.059c-0.02,0.013-0.042,0.019-0.067,0.019h-1.701v5.242c0,0.025-0.006,0.047-0.019,0.065
	s-0.034,0.034-0.065,0.045s-0.072,0.021-0.124,0.028c-0.052,0.007-0.115,0.012-0.193,0.012c-0.075,0-0.139-0.005-0.192-0.012
	c-0.053-0.008-0.095-0.018-0.126-0.028c-0.03-0.011-0.053-0.026-0.064-0.045c-0.013-0.019-0.019-0.04-0.019-0.065v-5.242h-1.701
	c-0.025,0-0.048-0.006-0.068-0.019c-0.02-0.012-0.036-0.031-0.049-0.059c-0.013-0.026-0.022-0.062-0.03-0.105
	c-0.008-0.043-0.012-0.095-0.012-0.154c0-0.058,0.004-0.11,0.012-0.155c0.008-0.046,0.018-0.082,0.03-0.11s0.029-0.049,0.049-0.061
	c0.021-0.013,0.043-0.02,0.068-0.02h4.205c0.025,0,0.048,0.007,0.067,0.02c0.02,0.012,0.037,0.032,0.051,0.061
	c0.015,0.028,0.024,0.064,0.03,0.11C146.964,57.312,146.967,57.364,146.967,57.422z"/>
<path fill="#20201F" d="M153.108,62.791c0,0.062-0.011,0.115-0.031,0.158c-0.021,0.044-0.049,0.08-0.083,0.108
	c-0.033,0.027-0.071,0.048-0.113,0.061s-0.084,0.019-0.125,0.019h-0.267c-0.084,0-0.156-0.009-0.22-0.025
	c-0.063-0.018-0.122-0.049-0.179-0.094s-0.113-0.107-0.17-0.186c-0.056-0.076-0.115-0.177-0.179-0.298l-1.845-3.439
	c-0.096-0.177-0.193-0.363-0.291-0.558c-0.099-0.195-0.189-0.384-0.273-0.568h-0.01c0.007,0.225,0.012,0.453,0.015,0.687
	c0.003,0.234,0.005,0.466,0.005,0.697v3.648c0,0.021-0.007,0.043-0.021,0.063c-0.013,0.021-0.035,0.036-0.066,0.047
	s-0.072,0.021-0.123,0.028c-0.052,0.007-0.116,0.012-0.194,0.012c-0.079,0-0.145-0.005-0.195-0.012
	c-0.052-0.008-0.092-0.018-0.121-0.028c-0.03-0.011-0.051-0.026-0.063-0.047s-0.02-0.042-0.02-0.063v-5.579
	c0-0.124,0.034-0.213,0.105-0.266c0.07-0.053,0.148-0.08,0.231-0.08h0.396c0.094,0,0.171,0.008,0.233,0.023
	c0.063,0.016,0.119,0.042,0.169,0.077c0.051,0.036,0.099,0.086,0.145,0.15c0.047,0.063,0.096,0.144,0.147,0.24l1.418,2.654
	c0.087,0.161,0.171,0.319,0.252,0.474c0.082,0.154,0.16,0.307,0.235,0.455c0.075,0.149,0.149,0.298,0.224,0.441
	c0.073,0.146,0.146,0.291,0.22,0.438h0.004c-0.006-0.246-0.01-0.502-0.012-0.769c-0.001-0.267-0.002-0.523-0.002-0.769v-3.28
	c0-0.021,0.007-0.042,0.02-0.061c0.014-0.019,0.034-0.035,0.066-0.049c0.031-0.015,0.072-0.024,0.123-0.03
	c0.051-0.007,0.118-0.01,0.2-0.01c0.071,0,0.134,0.003,0.187,0.01c0.053,0.006,0.094,0.016,0.124,0.03
	c0.029,0.014,0.051,0.03,0.064,0.049c0.013,0.019,0.02,0.039,0.02,0.061V62.791z"/>
<path fill="#20201F" d="M158.67,62.791c0,0.056-0.004,0.104-0.01,0.146s-0.018,0.077-0.033,0.105
	c-0.015,0.028-0.032,0.049-0.053,0.062c-0.021,0.012-0.043,0.019-0.067,0.019h-2.901c-0.072,0-0.14-0.024-0.204-0.073
	c-0.063-0.048-0.096-0.133-0.096-0.254v-5.393c0-0.121,0.032-0.206,0.096-0.254c0.064-0.049,0.132-0.073,0.204-0.073h2.868
	c0.025,0,0.048,0.007,0.068,0.02c0.02,0.012,0.036,0.032,0.049,0.061s0.022,0.063,0.03,0.105s0.011,0.095,0.011,0.155
	c0,0.057-0.003,0.105-0.011,0.147c-0.008,0.043-0.018,0.077-0.03,0.104s-0.029,0.046-0.049,0.059
	c-0.021,0.013-0.043,0.019-0.068,0.019h-2.363v1.896h2.027c0.024,0,0.048,0.007,0.067,0.021c0.02,0.014,0.037,0.033,0.051,0.059
	c0.015,0.024,0.024,0.059,0.03,0.103c0.007,0.044,0.01,0.095,0.01,0.153c0,0.057-0.003,0.105-0.01,0.146
	c-0.006,0.041-0.016,0.073-0.03,0.099c-0.014,0.024-0.031,0.043-0.051,0.054s-0.043,0.017-0.067,0.017h-2.027v2.162h2.396
	c0.024,0,0.047,0.006,0.067,0.019s0.038,0.032,0.053,0.059c0.016,0.026,0.027,0.061,0.033,0.104
	C158.666,62.677,158.67,62.729,158.67,62.791z"/>
<path fill="#20201F" d="M164.5,63.001c0,0.025-0.003,0.047-0.013,0.065s-0.029,0.034-0.061,0.047s-0.075,0.021-0.132,0.028
	c-0.056,0.006-0.131,0.01-0.224,0.01c-0.081,0-0.147-0.004-0.199-0.01c-0.051-0.007-0.093-0.017-0.124-0.03
	c-0.031-0.015-0.056-0.034-0.072-0.059c-0.018-0.025-0.031-0.057-0.044-0.094l-0.556-1.425c-0.065-0.162-0.134-0.312-0.204-0.446
	c-0.069-0.136-0.152-0.253-0.249-0.351c-0.098-0.098-0.211-0.174-0.342-0.229s-0.288-0.082-0.472-0.082h-0.537v2.574
	c0,0.025-0.008,0.047-0.021,0.065s-0.036,0.034-0.065,0.045s-0.069,0.021-0.121,0.028c-0.051,0.007-0.116,0.012-0.194,0.012
	s-0.143-0.005-0.193-0.012c-0.052-0.008-0.093-0.018-0.124-0.028s-0.053-0.026-0.065-0.045s-0.019-0.04-0.019-0.065v-5.598
	c0-0.121,0.032-0.206,0.096-0.254c0.064-0.049,0.132-0.073,0.203-0.073h1.285c0.152,0,0.279,0.004,0.38,0.012
	c0.102,0.008,0.193,0.017,0.274,0.026c0.233,0.04,0.439,0.104,0.618,0.191c0.18,0.087,0.33,0.197,0.451,0.332
	c0.122,0.134,0.213,0.287,0.274,0.46c0.06,0.173,0.09,0.363,0.09,0.572c0,0.202-0.027,0.385-0.081,0.544
	c-0.055,0.161-0.133,0.302-0.236,0.426c-0.103,0.123-0.226,0.229-0.369,0.319c-0.144,0.091-0.304,0.167-0.481,0.229
	c0.101,0.044,0.19,0.1,0.271,0.165c0.08,0.067,0.156,0.147,0.227,0.241s0.137,0.201,0.198,0.322
	c0.063,0.122,0.125,0.259,0.188,0.411l0.542,1.332c0.044,0.112,0.071,0.19,0.084,0.235C164.495,62.941,164.5,62.977,164.5,63.001z
	 M163.29,58.754c0-0.236-0.052-0.437-0.158-0.6c-0.105-0.164-0.284-0.282-0.532-0.354c-0.078-0.021-0.167-0.037-0.264-0.046
	c-0.099-0.01-0.228-0.015-0.386-0.015h-0.678v2.037h0.784c0.213,0,0.396-0.025,0.55-0.077s0.282-0.123,0.385-0.216
	c0.104-0.091,0.179-0.199,0.228-0.324C163.267,59.036,163.29,58.9,163.29,58.754z"/>
<rect x="49.433" y="50.954" fill="#C6C7C7" width="113.503" height="0.944"/>
</svg>
