<?xml version="1.0" encoding="utf-8"?>
<!-- Generator: Adobe Illustrator 15.1.0, SVG Export Plug-In . SVG Version: 6.00 Build 0)  -->
<!DOCTYPE svg PUBLIC "-//W3C//DTD SVG 1.1 Tiny//EN" "http://www.w3.org/Graphics/SVG/1.1/DTD/svg11-tiny.dtd">
<svg version="1.1" baseProfile="tiny" id="Layer_1" xmlns="http://www.w3.org/2000/svg" xmlns:xlink="http://www.w3.org/1999/xlink"
	 x="0px" y="0px" width="160px" height="20px" viewBox="0 0 160 20" xml:space="preserve">
<g>
	<path d="M17.303,11.391c-0.13-2.444-0.286-5.408-0.286-7.566h-0.052c-0.624,2.028-1.326,4.238-2.21,6.656l-3.094,8.503H9.944
		l-2.86-8.347C6.252,8.141,5.576,5.904,5.083,3.824H5.03c-0.052,2.185-0.182,5.097-0.338,7.749l-0.468,7.514H2.066L3.288,1.563
		h2.886l2.99,8.477c0.728,2.158,1.3,4.082,1.768,5.902h0.052c0.468-1.769,1.092-3.692,1.872-5.902l3.12-8.477h2.886l1.092,17.524
		h-2.236L17.303,11.391z"/>
	<path d="M27.728,19.374c-3.38,0-6.032-2.496-6.032-6.475c0-4.213,2.782-6.683,6.24-6.683c3.614,0,6.058,2.626,6.058,6.448
		c0,4.68-3.25,6.709-6.24,6.709H27.728z M27.806,17.657c2.184,0,3.822-2.055,3.822-4.914c0-2.133-1.066-4.811-3.77-4.811
		c-2.678,0-3.848,2.496-3.848,4.889c0,2.756,1.56,4.836,3.77,4.836H27.806z"/>
	<path d="M36.125,0.626h2.288v7.879h0.052c0.806-1.404,2.262-2.288,4.29-2.288c3.12,0,5.304,2.6,5.304,6.396
		c0,4.524-2.86,6.761-5.668,6.761c-1.82,0-3.25-0.703-4.212-2.367h-0.052l-0.13,2.08h-1.976c0.078-0.857,0.104-2.131,0.104-3.25
		V0.626z M38.414,14.044c0,0.285,0.026,0.571,0.078,0.832c0.442,1.586,1.794,2.678,3.432,2.678c2.418,0,3.822-1.951,3.822-4.836
		c0-2.549-1.3-4.707-3.744-4.707c-1.56,0-3.016,1.092-3.458,2.808c-0.078,0.286-0.13,0.599-0.13,0.963V14.044z"/>
	<path d="M51.257,4.188c-0.858,0-1.43-0.676-1.43-1.482c0-0.806,0.598-1.456,1.482-1.456c0.884,0,1.456,0.65,1.456,1.456
		c0,0.807-0.572,1.482-1.482,1.482H51.257z M50.165,19.087V6.503h2.288v12.584H50.165z"/>
	<path d="M55.495,0.626h2.288v18.461h-2.288V0.626z"/>
	<path d="M62.125,13.185c0.052,3.095,2.002,4.369,4.29,4.369c1.638,0,2.652-0.287,3.484-0.625l0.416,1.613
		c-0.806,0.363-2.21,0.805-4.212,0.805c-3.848,0-6.188-2.573-6.188-6.344c0-3.822,2.262-6.813,5.929-6.813
		c4.108,0,5.174,3.614,5.174,5.929c0,0.468-0.026,0.832-0.078,1.093L62.125,13.185z M68.807,11.547
		c0.026-1.43-0.598-3.718-3.146-3.718c-2.34,0-3.328,2.132-3.51,3.718H68.807z"/>
	<path fill="#FFFFFF" d="M76.035,19.087L71.589,1.563h2.392l2.08,8.866c0.52,2.211,0.988,4.369,1.3,6.059h0.052
		c0.286-1.742,0.832-3.822,1.43-6.085l2.34-8.84h2.365l2.133,8.893c0.494,2.106,0.961,4.16,1.223,6.007h0.051
		c0.365-1.925,0.859-3.875,1.404-6.06l2.314-8.84h2.314l-4.967,17.524h-2.365l-2.211-9.101c-0.547-2.262-0.91-3.978-1.145-5.746
		h-0.052c-0.286,1.769-0.702,3.458-1.352,5.721l-2.496,9.126H76.035z"/>
	<path fill="#FFFFFF" d="M99.461,19.374c-3.381,0-6.033-2.496-6.033-6.475c0-4.213,2.783-6.683,6.24-6.683
		c3.615,0,6.059,2.626,6.059,6.448c0,4.68-3.25,6.709-6.24,6.709H99.461z M99.539,17.657c2.184,0,3.822-2.055,3.822-4.914
		c0-2.133-1.066-4.811-3.77-4.811c-2.68,0-3.85,2.496-3.85,4.889c0,2.756,1.561,4.836,3.771,4.836H99.539z"/>
	<path fill="#FFFFFF" d="M107.885,10.429c0-1.482-0.025-2.756-0.104-3.926h2.002l0.104,2.47h0.078
		c0.572-1.69,1.977-2.756,3.51-2.756c0.234,0,0.416,0.025,0.625,0.078v2.132c-0.26-0.026-0.494-0.052-0.807-0.052
		c-1.611,0-2.756,1.222-3.068,2.912c-0.053,0.338-0.078,0.702-0.078,1.093v6.707h-2.287L107.885,10.429z"/>
	<path fill="#FFFFFF" d="M117.895,12.274h0.053c0.313-0.441,0.729-1.014,1.092-1.43l3.719-4.342h2.729l-4.861,5.174l5.539,7.41
		h-2.783l-4.316-6.058l-1.17,1.325v4.732h-2.287V0.626h2.287V12.274z"/>
	<path fill="#FFFFFF" d="M126.734,16.773c0.701,0.416,1.898,0.884,3.041,0.884c1.639,0,2.42-0.807,2.42-1.872
		c0-1.092-0.65-1.69-2.314-2.313c-2.289-0.832-3.355-2.055-3.355-3.563c0-2.028,1.664-3.692,4.344-3.692
		c1.273,0,2.391,0.338,3.066,0.78l-0.545,1.638c-0.494-0.286-1.404-0.729-2.574-0.729c-1.352,0-2.08,0.78-2.08,1.717
		c0,1.065,0.729,1.534,2.365,2.158c2.158,0.806,3.303,1.897,3.303,3.796c0,2.236-1.742,3.797-4.68,3.797
		c-1.379,0-2.652-0.365-3.537-0.885L126.734,16.773z"/>
	<path fill="#FFFFFF" d="M137.551,19.374c-0.885,0-1.508-0.703-1.508-1.639s0.648-1.639,1.559-1.639s1.535,0.677,1.535,1.639
		c0,0.936-0.625,1.639-1.561,1.639H137.551z"/>
	<path fill="#FFFFFF" d="M142.309,4.188c-0.859,0-1.43-0.676-1.43-1.482c0-0.806,0.598-1.456,1.48-1.456
		c0.885,0,1.457,0.65,1.457,1.456c0,0.807-0.572,1.482-1.482,1.482H142.309z M141.217,19.087V6.503h2.287v12.584H141.217z"/>
	<path fill="#FFFFFF" d="M151.668,19.374c-3.381,0-6.033-2.496-6.033-6.475c0-4.213,2.783-6.683,6.24-6.683
		c3.615,0,6.059,2.626,6.059,6.448c0,4.68-3.25,6.709-6.24,6.709H151.668z M151.746,17.657c2.184,0,3.822-2.055,3.822-4.914
		c0-2.133-1.066-4.811-3.77-4.811c-2.68,0-3.85,2.496-3.85,4.889c0,2.756,1.561,4.836,3.771,4.836H151.746z"/>
</g>
</svg>
