<?xml version="1.0" encoding="utf-8"?>
<!-- Generator: Adobe Illustrator 15.1.0, SVG Export Plug-In . SVG Version: 6.00 Build 0)  -->
<!DOCTYPE svg PUBLIC "-//W3C//DTD SVG 1.1//EN" "http://www.w3.org/Graphics/SVG/1.1/DTD/svg11.dtd">
<svg version="1.1" id="Layer_1" xmlns="http://www.w3.org/2000/svg" xmlns:xlink="http://www.w3.org/1999/xlink" x="0px" y="0px"
	 width="300px" height="40px" viewBox="0 0 300 40" enable-background="new 0 0 300 40" xml:space="preserve">
<g>
	<g>
		<path d="M29.726,22.668c-0.25-4.688-0.549-10.373-0.549-14.513h-0.099c-1.197,3.891-2.544,8.129-4.24,12.767L18.903,37.23h-3.292
			l-5.486-16.008c-1.596-4.788-2.893-9.078-3.84-13.068H6.185c-0.1,4.19-0.348,9.775-0.648,14.862L4.639,37.431H0.5L2.844,3.816
			H8.38l5.735,16.259c1.396,4.138,2.494,7.83,3.391,11.32h0.101c0.897-3.393,2.095-7.082,3.59-11.32l5.985-16.259h5.536
			l2.094,33.614h-4.288L29.726,22.668z"/>
		<path d="M49.727,37.979c-6.484,0-11.571-4.788-11.571-12.42c0-8.078,5.336-12.816,11.969-12.816c6.933,0,11.62,5.037,11.62,12.368
			c0,8.977-6.234,12.868-11.968,12.868H49.727z M49.876,34.686c4.189,0,7.332-3.938,7.332-9.425c0-4.089-2.045-9.226-7.231-9.226
			c-5.137,0-7.382,4.788-7.382,9.376c0,5.287,2.993,9.274,7.232,9.274H49.876z"/>
		<path d="M65.837,2.021h4.389v15.111h0.099c1.547-2.693,4.339-4.389,8.23-4.389c5.985,0,10.173,4.987,10.173,12.27
			c0,8.676-5.486,12.967-10.872,12.967c-3.491,0-6.234-1.348-8.079-4.539h-0.101l-0.249,3.99h-3.79c0.149-1.646,0.2-4.09,0.2-6.235
			V2.021z M70.226,27.756c0,0.547,0.049,1.096,0.15,1.596c0.846,3.041,3.44,5.137,6.583,5.137c4.637,0,7.332-3.741,7.332-9.277
			c0-4.887-2.495-9.026-7.182-9.026c-2.993,0-5.786,2.095-6.634,5.386c-0.15,0.549-0.249,1.146-0.249,1.847V27.756z"/>
		<path d="M94.864,8.854c-1.646,0-2.742-1.297-2.742-2.843c0-1.545,1.146-2.793,2.842-2.793c1.697,0,2.793,1.248,2.793,2.793
			c0,1.546-1.097,2.843-2.842,2.843H94.864z M92.77,37.431V13.292h4.389v24.139H92.77z"/>
		<path d="M102.994,2.021h4.389v35.41h-4.389V2.021z"/>
		<path d="M115.712,26.108c0.099,5.936,3.839,8.38,8.229,8.38c3.142,0,5.086-0.549,6.682-1.197l0.798,3.092
			c-1.545,0.697-4.238,1.546-8.08,1.546c-7.38,0-11.869-4.938-11.869-12.168c0-7.332,4.339-13.067,11.371-13.067
			c7.88,0,9.925,6.933,9.925,11.371c0,0.897-0.05,1.595-0.15,2.095L115.712,26.108z M128.529,22.968
			c0.049-2.743-1.147-7.133-6.034-7.133c-4.489,0-6.384,4.09-6.733,7.133H128.529z"/>
		<path fill="#FFFFFF" d="M142.395,37.431l-8.528-33.614h4.588l3.99,17.007c0.998,4.237,1.896,8.379,2.493,11.62h0.101
			c0.548-3.342,1.595-7.332,2.743-11.671l4.489-16.956h4.538l4.089,17.056c0.948,4.04,1.846,7.979,2.344,11.52h0.102
			c0.698-3.69,1.645-7.431,2.693-11.62l4.438-16.956h4.438l-9.523,33.614h-4.539l-4.239-17.456
			c-1.048-4.338-1.745-7.63-2.194-11.022h-0.101c-0.548,3.392-1.346,6.633-2.593,10.972l-4.788,17.506H142.395z"/>
		<path fill="#FFFFFF" d="M187.332,37.979c-6.481,0-11.57-4.788-11.57-12.42c0-8.078,5.337-12.816,11.97-12.816
			c6.933,0,11.62,5.037,11.62,12.368c0,8.977-6.233,12.868-11.969,12.868H187.332z M187.481,34.686c4.19,0,7.332-3.938,7.332-9.425
			c0-4.089-2.045-9.226-7.23-9.226c-5.139,0-7.383,4.788-7.383,9.376c0,5.287,2.994,9.274,7.232,9.274H187.481z"/>
		<path fill="#FFFFFF" d="M203.494,20.823c0-2.843-0.051-5.287-0.2-7.531h3.841l0.198,4.738h0.149
			c1.098-3.242,3.79-5.287,6.732-5.287c0.448,0,0.8,0.05,1.197,0.15v4.089c-0.499-0.05-0.947-0.099-1.545-0.099
			c-3.093,0-5.287,2.344-5.886,5.584c-0.1,0.649-0.149,1.348-0.149,2.096v12.867h-4.389L203.494,20.823z"/>
		<path fill="#FFFFFF" d="M222.695,24.363h0.098c0.599-0.848,1.397-1.945,2.096-2.742l7.132-8.329h5.236l-9.325,9.925l10.621,14.214
			h-5.334l-8.279-11.621l-2.244,2.545v9.076h-4.389V2.021h4.389V24.363z"/>
		<path fill="#FFFFFF" d="M239.652,32.991c1.348,0.798,3.642,1.694,5.836,1.694c3.141,0,4.637-1.544,4.637-3.589
			c0-2.096-1.245-3.242-4.437-4.439c-4.389-1.597-6.434-3.94-6.434-6.832c0-3.89,3.191-7.082,8.328-7.082
			c2.444,0,4.588,0.649,5.883,1.497l-1.046,3.142c-0.946-0.549-2.692-1.397-4.937-1.397c-2.594,0-3.99,1.497-3.99,3.292
			c0,2.045,1.396,2.943,4.539,4.14c4.139,1.545,6.333,3.64,6.333,7.281c0,4.287-3.342,7.281-8.977,7.281
			c-2.643,0-5.088-0.699-6.784-1.697L239.652,32.991z"/>
		<path fill="#FFFFFF" d="M260.401,37.979c-1.697,0-2.893-1.348-2.893-3.144c0-1.794,1.245-3.141,2.992-3.141
			c1.744,0,2.943,1.296,2.943,3.141c0,1.796-1.199,3.144-2.994,3.144H260.401z"/>
		<path fill="#FFFFFF" d="M269.526,8.854c-1.645,0-2.742-1.297-2.742-2.843c0-1.545,1.147-2.793,2.844-2.793
			c1.694,0,2.791,1.248,2.791,2.793c0,1.546-1.097,2.843-2.841,2.843H269.526z M267.433,37.431V13.292h4.389v24.139H267.433z"/>
		<path fill="#FFFFFF" d="M287.482,37.979c-6.483,0-11.57-4.788-11.57-12.42c0-8.078,5.336-12.816,11.97-12.816
			c6.931,0,11.618,5.037,11.618,12.368c0,8.977-6.233,12.868-11.969,12.868H287.482z M287.631,34.686
			c4.19,0,7.331-3.938,7.331-9.425c0-4.089-2.044-9.226-7.229-9.226c-5.138,0-7.384,4.788-7.384,9.376
			c0,5.287,2.995,9.274,7.233,9.274H287.631z"/>
	</g>
</g>
</svg>
