<?xml version="1.0" encoding="utf-8"?>
<!-- Generator: Adobe Illustrator 15.1.0, SVG Export Plug-In . SVG Version: 6.00 Build 0)  -->
<!DOCTYPE svg PUBLIC "-//W3C//DTD SVG 1.1//EN" "http://www.w3.org/Graphics/SVG/1.1/DTD/svg11.dtd">
<svg version="1.1" id="Layer_1" xmlns="http://www.w3.org/2000/svg" xmlns:xlink="http://www.w3.org/1999/xlink" x="0px" y="0px"
	 width="100px" height="100px" viewBox="0 0 100 100" enable-background="new 0 0 100 100" xml:space="preserve">
<g>
	<path fill="#77787B" d="M-304.996,0C-332.613,0-355,22.386-355,49.997C-355,77.614-332.613,100-304.996,100
		C-277.385,100-255,77.614-255,49.997C-255,22.386-277.385,0-304.996,0"/>
	<g>
		<g>
			<circle fill="#FFFFFF" cx="-313.385" cy="71.443" r="4.076"/>
			<circle fill="#FFFFFF" cx="-290.764" cy="71.443" r="4.076"/>
		</g>
		<path fill="#FFFFFF" d="M-274.109,36.856c-0.646-0.987-1.746-1.582-2.928-1.582h-33.578c-1.934,0-3.5,1.567-3.5,3.5
			c0,1.933,1.566,3.5,3.5,3.5h28.236l-6.092,13.985h-25.896l-9.213-23.785c-0.523-1.348-1.818-2.235-3.264-2.235h-11.193
			c-1.934,0-3.5,1.566-3.5,3.5c0,1.933,1.566,3.5,3.5,3.5h8.795l8.881,22.925c0.203,1.74,1.664,3.095,3.459,3.095h30.725
			c1.393,0,2.654-0.825,3.209-2.103l9.141-20.984C-273.355,39.09-273.463,37.843-274.109,36.856z"/>
	</g>
</g>
<g>
	<path fill="#77787B" d="M50.003,0C22.386,0-0.001,22.386-0.001,49.997C-0.001,77.614,22.386,100,50.003,100
		c27.611,0,49.996-22.386,49.996-50.003C99.999,22.386,77.614,0,50.003,0"/>
	<g>
		<g>
			<g>
				<path fill="#FFFFFF" d="M71.884,67.445h-0.538c-1.787,0-3.449-0.537-4.841-1.455c-2.305,4.436-6.363,7.817-11.253,9.216
					c-1.098-1.6-2.938-2.65-5.025-2.65c-3.363,0-6.09,2.725-6.09,6.088c0,3.362,2.727,6.089,6.09,6.089
					c2.653,0,4.905-1.701,5.739-4.068C63.054,78.901,68.899,73.964,71.884,67.445z"/>
			</g>
		</g>
		<path fill="#FFFFFF" d="M77.664,44.002v-0.261c0-2.393-1.612-4.407-3.799-5.067C72.31,26.889,62.204,17.761,50,17.761
			s-22.31,9.127-23.865,20.913c-2.185,0.661-3.799,2.674-3.799,5.067v0.261c-1.673,0.483-2.871,1.781-2.871,4.028v6.31
			c0,2.247,1.198,3.544,2.871,4.028v0.261c0,2.925,2.395,5.316,5.318,5.316h1.002c2.924,0,5.316-2.392,5.316-5.316V43.741
			c0-1.625-0.755-3.069-1.914-4.046c1.065-8.96,8.699-15.935,17.941-15.935s16.876,6.975,17.941,15.935
			c-1.159,0.978-1.914,2.421-1.914,4.046v14.888c0,2.925,2.393,5.316,5.318,5.316h1c2.926,0,5.318-2.392,5.318-5.316v-0.261
			c1.673-0.484,2.871-1.781,2.871-4.028v-6.309C80.535,45.783,79.337,44.486,77.664,44.002z"/>
	</g>
</g>
<g>
	<path fill="#77787B" d="M-127.996,0C-155.613,0-178,22.386-178,49.997C-178,77.614-155.613,100-127.996,100
		C-100.385,100-78,77.614-78,49.997C-78,22.386-100.385,0-127.996,0"/>
	<path fill="#FFFFFF" d="M-99.381,44.342c-3.299,5.678-8.875,7.365-16.752,5.074c-1.363-0.395-2.23-1.637-2.23-2.967
		c0-0.363,0.061-0.737,0.195-1.103l0.076-0.175c0.609-1.339,2.094-2.075,3.541-1.719c4.402,1.082,7.395,0.268,8.971-2.466
		c1.24-2.151,0.479-4.904-1.668-6.147l-7.881-4.575l-6.605,11.384l-2.006,3.463l-6.598,11.38l-2.764,4.766l-8.176,14.098
		c-0.314,0.537-1.01,0.723-1.545,0.41l-0.207-0.121l-12.91-7.487c-2.82-1.632-4.688-3.477-5.609-5.531
		c-0.641-1.433-0.82-2.969-0.541-4.603c0.227-1.377,0.783-2.813,1.658-4.331c3.297-5.678,8.881-7.369,16.762-5.089
		c0.063,0.021,0.121,0.036,0.184,0.058c1.262,0.453,2.055,1.643,2.055,2.916c0,0.365-0.068,0.738-0.205,1.104
		c-0.559,1.449-2.105,2.263-3.615,1.894c-4.43-1.083-7.426-0.251-9.002,2.51c-0.186,0.326-0.326,0.677-0.424,1.029
		c-0.334,1.26-0.102,2.611,0.602,3.686c0.377,0.57,0.879,1.06,1.502,1.421l7.887,4.574l8.361-14.41l1.885-3.25l5.037-8.677
		l4.043-6.973l4.174-7.195c1.779-3.07,5.715-4.117,8.775-2.333l6.363,3.688l2.168,1.253C-97.461,33.628-95.957,38.436-99.381,44.342
		"/>
</g>
</svg>
