<?xml version="1.0" encoding="utf-8"?>
<!-- Generator: Adobe Illustrator 15.1.0, SVG Export Plug-In . SVG Version: 6.00 Build 0)  -->
<!DOCTYPE svg PUBLIC "-//W3C//DTD SVG 1.1//EN" "http://www.w3.org/Graphics/SVG/1.1/DTD/svg11.dtd">
<svg version="1.1" id="Layer_1" xmlns="http://www.w3.org/2000/svg" xmlns:xlink="http://www.w3.org/1999/xlink" x="0px" y="0px"
	 width="180px" height="24px" viewBox="0 0 180 24" enable-background="new 0 0 180 24" xml:space="preserve">
<g>
	<path fill="#7D7E81" d="M18.399,13.588c-0.148-2.79-0.327-6.175-0.327-8.639h-0.06c-0.712,2.316-1.514,4.839-2.523,7.601
		l-3.533,9.708h-1.96l-3.266-9.53C5.78,9.877,5.008,7.324,4.444,4.949H4.385c-0.06,2.494-0.208,5.819-0.386,8.848l-0.535,8.58H1
		L2.396,2.366h3.295l3.415,9.679c0.832,2.465,1.485,4.66,2.019,6.74h0.059c0.535-2.02,1.248-4.217,2.138-6.74l3.563-9.679h3.296
		l1.247,20.011h-2.553L18.399,13.588z"/>
	<path fill="#7D7E81" d="M30.305,22.703c-3.86,0-6.888-2.85-6.888-7.393c0-4.81,3.177-7.63,7.126-7.63
		c4.126,0,6.918,2.999,6.918,7.363c0,5.346-3.711,7.66-7.126,7.66H30.305z M30.394,20.744c2.494,0,4.365-2.346,4.365-5.611
		c0-2.435-1.217-5.493-4.305-5.493c-3.058,0-4.394,2.851-4.394,5.583c0,3.146,1.781,5.521,4.305,5.521H30.394z"/>
	<path fill="#7D7E81" d="M39.896,1.296h2.613v8.997h0.06c0.92-1.604,2.583-2.613,4.899-2.613c3.563,0,6.057,2.969,6.057,7.304
		c0,5.166-3.266,7.719-6.473,7.719c-2.078,0-3.711-0.801-4.81-2.701h-0.059l-0.149,2.375h-2.256c0.089-0.98,0.119-2.434,0.119-3.711
		V1.296z M42.509,16.617c0,0.326,0.03,0.652,0.089,0.949c0.504,1.813,2.048,3.059,3.919,3.059c2.761,0,4.364-2.227,4.364-5.521
		c0-2.91-1.485-5.375-4.275-5.375c-1.781,0-3.444,1.247-3.949,3.207c-0.089,0.326-0.149,0.684-0.149,1.099V16.617z"/>
	<path fill="#7D7E81" d="M57.176,5.364c-0.979,0-1.633-0.772-1.633-1.692s0.683-1.663,1.692-1.663s1.663,0.742,1.663,1.663
		s-0.653,1.692-1.692,1.692H57.176z M55.929,22.377V8.007h2.612v14.37H55.929z"/>
	<path fill="#7D7E81" d="M62.016,1.296h2.613v21.081h-2.613V1.296z"/>
	<path fill="#7D7E81" d="M69.587,15.637c0.059,3.533,2.286,4.988,4.899,4.988c1.871,0,3.028-0.326,3.979-0.713l0.475,1.842
		c-0.921,0.416-2.524,0.92-4.81,0.92c-4.395,0-7.066-2.939-7.066-7.244c0-4.365,2.583-7.779,6.769-7.779
		c4.692,0,5.909,4.127,5.909,6.77c0,0.535-0.029,0.949-0.089,1.246L69.587,15.637z M77.218,13.767
		c0.03-1.633-0.683-4.245-3.593-4.245c-2.672,0-3.8,2.434-4.008,4.245H77.218z"/>
	<path fill="#333333" d="M85.472,22.377L80.395,2.366h2.731l2.375,10.125c0.594,2.523,1.128,4.988,1.484,6.918h0.06
		c0.326-1.99,0.95-4.365,1.633-6.948l2.672-10.095h2.702l2.435,10.154c0.563,2.404,1.099,4.75,1.395,6.859h0.061
		c0.415-2.197,0.979-4.424,1.604-6.918l2.643-10.095h2.642l-5.67,20.011h-2.703l-2.523-10.392c-0.623-2.583-1.039-4.542-1.307-6.562
		h-0.059c-0.327,2.019-0.803,3.949-1.545,6.532l-2.85,10.421H85.472z"/>
	<path fill="#333333" d="M112.224,22.703c-3.859,0-6.888-2.85-6.888-7.393c0-4.81,3.176-7.63,7.125-7.63
		c4.128,0,6.919,2.999,6.919,7.363c0,5.346-3.712,7.66-7.125,7.66H112.224z M112.313,20.744c2.495,0,4.365-2.346,4.365-5.611
		c0-2.435-1.217-5.493-4.306-5.493c-3.058,0-4.394,2.851-4.394,5.583c0,3.146,1.781,5.521,4.305,5.521H112.313z"/>
	<path fill="#333333" d="M121.845,12.49c0-1.692-0.029-3.147-0.118-4.483h2.285l0.119,2.821h0.09
		c0.653-1.93,2.256-3.147,4.007-3.147c0.268,0,0.476,0.03,0.713,0.089v2.435c-0.296-0.03-0.564-0.06-0.92-0.06
		c-1.841,0-3.146,1.396-3.504,3.326c-0.059,0.385-0.09,0.801-0.09,1.246v7.66h-2.611L121.845,12.49z"/>
	<path fill="#333333" d="M133.275,14.598h0.06c0.357-0.504,0.832-1.158,1.247-1.632l4.246-4.958h3.117l-5.553,5.908l6.325,8.462
		h-3.177l-4.929-6.918l-1.337,1.514v5.404h-2.612V1.296h2.612V14.598z"/>
	<path fill="#333333" d="M143.371,19.734c0.802,0.475,2.167,1.01,3.474,1.01c1.87,0,2.762-0.92,2.762-2.139
		c0-1.246-0.742-1.93-2.643-2.641c-2.612-0.951-3.83-2.346-3.83-4.068c0-2.316,1.899-4.216,4.958-4.216
		c1.456,0,2.731,0.386,3.504,0.891l-0.624,1.87c-0.564-0.327-1.604-0.831-2.939-0.831c-1.543,0-2.375,0.891-2.375,1.959
		c0,1.217,0.832,1.752,2.701,2.464c2.465,0.921,3.771,2.167,3.771,4.335c0,2.553-1.989,4.334-5.345,4.334
		c-1.573,0-3.028-0.414-4.037-1.01L143.371,19.734z"/>
	<path fill="#333333" d="M155.723,22.703c-1.01,0-1.722-0.801-1.722-1.871c0-1.066,0.742-1.869,1.78-1.869
		c1.04,0,1.753,0.771,1.753,1.869c0,1.07-0.713,1.871-1.781,1.871H155.723z"/>
	<path fill="#333333" d="M161.155,5.364c-0.979,0-1.632-0.772-1.632-1.692s0.683-1.663,1.692-1.663c1.009,0,1.662,0.742,1.662,1.663
		s-0.653,1.692-1.691,1.692H161.155z M159.909,22.377V8.007h2.613v14.37H159.909z"/>
	<path fill="#333333" d="M171.845,22.703c-3.859,0-6.889-2.85-6.889-7.393c0-4.81,3.177-7.63,7.126-7.63
		c4.126,0,6.918,2.999,6.918,7.363c0,5.346-3.712,7.66-7.126,7.66H171.845z M171.934,20.744c2.494,0,4.364-2.346,4.364-5.611
		c0-2.435-1.217-5.493-4.306-5.493c-3.058,0-4.394,2.851-4.394,5.583c0,3.146,1.782,5.521,4.305,5.521H171.934z"/>
</g>
</svg>
