<?xml version="1.0" encoding="utf-8"?>
<!-- Generator: Adobe Illustrator 19.1.0, SVG Export Plug-In . SVG Version: 6.00 Build 0)  -->
<svg version="1.1" id="Layer_1" xmlns="http://www.w3.org/2000/svg" xmlns:xlink="http://www.w3.org/1999/xlink" x="0px" y="0px"
	 viewBox="0 0 50 50" style="enable-background:new 0 0 50 50;" xml:space="preserve">
<style type="text/css">
	.st0{fill:#F0F1F1;}
	.st1{fill:#65A8DE;}
	.st2{fill:#C5C6C8;}
	.st3{fill:#979797;}
	.st4{fill:#FFFFFF;}
</style>
<path class="st3" d="M25,50L25,50C11.2,50,0,38.8,0,25v0C0,11.2,11.2,0,25,0h0c13.8,0,25,11.2,25,25v0C50,38.8,38.8,50,25,50z"/>
<g>
	<g>
		<path class="st4" d="M17.8,29.9c-1.8,0-3.2,1.4-3.2,3.2c0,1.8,1.4,3.2,3.2,3.2c1.8,0,3.2-1.4,3.2-3.2C21,31.3,19.6,29.9,17.8,29.9
			z"/>
		<path class="st4" d="M16.8,21.1C16.8,21.1,16.8,21.1,16.8,21.1L16.8,21.1h-1.3v0c-0.6,0.1-1.1,0.6-1.1,1.2h0v2.2h0
			c0.1,0.6,0.5,1,1.1,1.1v0h1.3v0c0,0,0,0,0,0c4.6,0,8.4,3.7,8.4,8.4h0v1.3h0c0.1,0.6,0.6,1.1,1.2,1.1v0h2.2v0
			c0.6-0.1,1-0.5,1.1-1.1h0V34h0C29.8,26.9,24,21.1,16.8,21.1z"/>
		<path class="st4" d="M38.4,34c-0.1-11.9-9.7-21.5-21.6-21.5c0,0,0,0,0,0v0h-1.3v0c-0.6,0.1-1.1,0.6-1.1,1.2h0V16h0
			c0.1,0.6,0.5,1,1.1,1.1v0h1.3v0c0,0,0,0,0,0c9.4,0,17,7.6,17,17h0v1.3h0c0.1,0.6,0.6,1.1,1.2,1.1v0h2.2v0c0.6-0.1,1-0.5,1.1-1.1h0
			L38.4,34L38.4,34L38.4,34z"/>
	</g>
</g>
</svg>
